M48
; DRILL file {KiCad 7.0.5} date Thu Feb  8 14:25:27 2024
; FORMAT={-:-/ absolute / inch / decimal}
; #@! TF.CreationDate,2024-02-08T14:25:27+05:30
; #@! TF.GenerationSoftware,Kicad,Pcbnew,7.0.5
; #@! TF.FileFunction,Plated,1,2,PTH
FMAT,2
INCH
; #@! TA.AperFunction,Plated,PTH,ComponentDrill
T1C0.0276
; #@! TA.AperFunction,Plated,PTH,ComponentDrill
T2C0.0354
; #@! TA.AperFunction,Plated,PTH,ComponentDrill
T3C0.0394
; #@! TA.AperFunction,Plated,PTH,ComponentDrill
T4C0.0433
%
G90
G05
T1
X2.7Y-4.5
X2.7Y-4.8
X3.3Y-4.5
X3.3Y-4.8
X3.9Y-4.5
X3.9Y-4.8
X4.5Y-4.5
X4.5Y-4.8
T2
X2.7Y-4.0
X2.7Y-4.1
X3.3Y-4.0
X3.3Y-4.1
X3.9Y-4.0
X3.9Y-4.1
X4.5Y-4.0
X4.5Y-4.1
T3
X2.1Y-4.0
X2.1Y-4.1
X2.1Y-4.2
X2.4Y-2.0
X2.4Y-2.9
X2.4Y-3.2
X2.5Y-2.0
X2.5Y-2.9
X2.5Y-3.2
X2.6Y-1.7
X2.6Y-2.0
X2.6Y-2.9
X2.6Y-3.2
X2.7Y-1.7
X2.7Y-2.0
X2.7Y-2.9
X2.7Y-3.2
X2.8Y-1.7
X2.8Y-2.0
X2.8Y-2.9
X2.8Y-3.2
X2.9Y-1.7
X2.9Y-2.0
X2.9Y-2.9
X2.9Y-3.2
X3.0Y-1.7
X3.0Y-2.0
X3.0Y-2.9
X3.1Y-1.7
X3.1Y-2.0
X3.1Y-2.9
X3.2Y-1.7
X3.2Y-2.0
X3.2Y-2.9
X3.3Y-1.7
X3.3Y-2.0
X3.3Y-2.9
X3.3Y-3.2
X3.4Y-1.7
X3.4Y-2.0
X3.4Y-2.9
X3.4Y-3.2
X3.5Y-1.7
X3.5Y-2.0
X3.5Y-2.9
X3.5Y-3.2
X3.6Y-1.7
X3.6Y-2.0
X3.6Y-2.9
X3.6Y-3.2
X3.7Y-1.7
X3.7Y-2.0
X3.7Y-2.9
X3.7Y-3.2
X3.8Y-1.7
X3.8Y-2.0
X3.8Y-2.9
X3.8Y-3.2
X3.9Y-3.2
X4.0Y-3.5
X4.1Y-3.5
X4.2Y-3.5
X4.3Y-3.5
X4.4Y-3.5
X4.5Y-3.5
X4.6Y-3.5
X4.7Y-3.5
T4
X4.4441Y-1.7114
X4.4441Y-1.8886
X4.4441Y-2.1228
X4.4441Y-2.3
X4.4441Y-2.5
X4.4441Y-2.6772
X4.4441Y-2.9114
X4.4441Y-3.0886
X4.7Y-1.7114
X4.7Y-1.8886
X4.7Y-2.1228
X4.7Y-2.3
X4.7Y-2.5
X4.7Y-2.6772
X4.7Y-2.9114
X4.7Y-3.0886
T0
M30
