%TF.GenerationSoftware,KiCad,Pcbnew,7.0.5*%
%TF.CreationDate,2024-02-08T14:25:21+05:30*%
%TF.ProjectId,Home Automation,486f6d65-2041-4757-946f-6d6174696f6e,rev?*%
%TF.SameCoordinates,Original*%
%TF.FileFunction,Copper,L2,Bot*%
%TF.FilePolarity,Positive*%
%FSLAX46Y46*%
G04 Gerber Fmt 4.6, Leading zero omitted, Abs format (unit mm)*
G04 Created by KiCad (PCBNEW 7.0.5) date 2024-02-08 14:25:21*
%MOMM*%
%LPD*%
G01*
G04 APERTURE LIST*
%TA.AperFunction,ComponentPad*%
%ADD10C,1.400000*%
%TD*%
%TA.AperFunction,ComponentPad*%
%ADD11O,1.400000X1.400000*%
%TD*%
%TA.AperFunction,ComponentPad*%
%ADD12R,1.700000X1.700000*%
%TD*%
%TA.AperFunction,ComponentPad*%
%ADD13O,1.700000X1.700000*%
%TD*%
%TA.AperFunction,ComponentPad*%
%ADD14C,2.000000*%
%TD*%
%TA.AperFunction,ComponentPad*%
%ADD15R,1.800000X1.800000*%
%TD*%
%TA.AperFunction,ComponentPad*%
%ADD16C,1.800000*%
%TD*%
%TA.AperFunction,Conductor*%
%ADD17C,0.200000*%
%TD*%
G04 APERTURE END LIST*
D10*
%TO.P,R3,1*%
%TO.N,Net-(D3-K)*%
X83820000Y-114300000D03*
D11*
%TO.P,R3,2*%
%TO.N,GND*%
X83820000Y-121920000D03*
%TD*%
D12*
%TO.P,J2,1,Pin_1*%
%TO.N,Net-(J2-Pin_1)*%
X96520000Y-73660000D03*
D13*
%TO.P,J2,2,Pin_2*%
%TO.N,Net-(J2-Pin_2)*%
X93980000Y-73660000D03*
%TO.P,J2,3,Pin_3*%
%TO.N,Net-(J2-Pin_3)*%
X91440000Y-73660000D03*
%TO.P,J2,4,Pin_4*%
%TO.N,Net-(J2-Pin_4)*%
X88900000Y-73660000D03*
%TO.P,J2,5,Pin_5*%
%TO.N,Net-(J2-Pin_5)*%
X86360000Y-73660000D03*
%TO.P,J2,6,Pin_6*%
%TO.N,Net-(J2-Pin_6)*%
X83820000Y-73660000D03*
%TO.P,J2,7,Pin_7*%
%TO.N,Net-(J2-Pin_7)*%
X81280000Y-73660000D03*
%TO.P,J2,8,Pin_8*%
%TO.N,Net-(J2-Pin_8)*%
X78740000Y-73660000D03*
%TO.P,J2,9,Pin_9*%
%TO.N,Net-(J2-Pin_9)*%
X76200000Y-73660000D03*
%TO.P,J2,10,Pin_10*%
%TO.N,Net-(J2-Pin_10)*%
X73660000Y-73660000D03*
%TO.P,J2,11,Pin_11*%
%TO.N,Net-(J2-Pin_11)*%
X71120000Y-73660000D03*
%TO.P,J2,12,Pin_12*%
%TO.N,Net-(J2-Pin_12)*%
X68580000Y-73660000D03*
%TO.P,J2,13,Pin_13*%
%TO.N,Net-(J2-Pin_13)*%
X66040000Y-73660000D03*
%TO.P,J2,14,Pin_14*%
%TO.N,Net-(J2-Pin_14)*%
X63500000Y-73660000D03*
%TO.P,J2,15,Pin_15*%
%TO.N,Net-(J2-Pin_15)*%
X60960000Y-73660000D03*
%TD*%
D10*
%TO.P,R1,1*%
%TO.N,Net-(D1-K)*%
X114300000Y-114300000D03*
D11*
%TO.P,R1,2*%
%TO.N,GND*%
X114300000Y-121920000D03*
%TD*%
D10*
%TO.P,R2,1*%
%TO.N,Net-(D2-K)*%
X99060000Y-114300000D03*
D11*
%TO.P,R2,2*%
%TO.N,GND*%
X99060000Y-121920000D03*
%TD*%
D12*
%TO.P,J5,1,Pin_1*%
%TO.N,Net-(D4-A)*%
X101600000Y-88900000D03*
D13*
%TO.P,J5,2,Pin_2*%
%TO.N,Net-(D3-A)*%
X104140000Y-88900000D03*
%TO.P,J5,3,Pin_3*%
%TO.N,Net-(D2-A)*%
X106680000Y-88900000D03*
%TO.P,J5,4,Pin_4*%
%TO.N,Net-(D1-A)*%
X109220000Y-88900000D03*
%TO.P,J5,5,Pin_5*%
%TO.N,Net-(J4-Pin_1)*%
X111760000Y-88900000D03*
%TO.P,J5,6,Pin_6*%
X114300000Y-88900000D03*
%TO.P,J5,7,Pin_7*%
X116840000Y-88900000D03*
%TO.P,J5,8,Pin_8*%
X119380000Y-88900000D03*
%TD*%
D12*
%TO.P,J1,1,Pin_1*%
%TO.N,Net-(J1-Pin_1)*%
X96520000Y-50800000D03*
D13*
%TO.P,J1,2,Pin_2*%
%TO.N,Net-(J1-Pin_2)*%
X93980000Y-50800000D03*
%TO.P,J1,3,Pin_3*%
%TO.N,Net-(J1-Pin_3)*%
X91440000Y-50800000D03*
%TO.P,J1,4,Pin_4*%
%TO.N,Net-(J1-Pin_4)*%
X88900000Y-50800000D03*
%TO.P,J1,5,Pin_5*%
%TO.N,Net-(J1-Pin_5)*%
X86360000Y-50800000D03*
%TO.P,J1,6,Pin_6*%
%TO.N,Net-(J1-Pin_6)*%
X83820000Y-50800000D03*
%TO.P,J1,7,Pin_7*%
%TO.N,Net-(J1-Pin_7)*%
X81280000Y-50800000D03*
%TO.P,J1,8,Pin_8*%
%TO.N,Net-(J1-Pin_8)*%
X78740000Y-50800000D03*
%TO.P,J1,9,Pin_9*%
%TO.N,Net-(J1-Pin_9)*%
X76200000Y-50800000D03*
%TO.P,J1,10,Pin_10*%
%TO.N,Net-(J1-Pin_10)*%
X73660000Y-50800000D03*
%TO.P,J1,11,Pin_11*%
%TO.N,Net-(J1-Pin_11)*%
X71120000Y-50800000D03*
%TO.P,J1,12,Pin_12*%
%TO.N,Net-(J1-Pin_12)*%
X68580000Y-50800000D03*
%TO.P,J1,13,Pin_13*%
%TO.N,Net-(J1-Pin_13)*%
X66040000Y-50800000D03*
%TO.P,J1,14,Pin_14*%
%TO.N,GND*%
X63500000Y-50800000D03*
%TO.P,J1,15,Pin_15*%
%TO.N,Net-(J1-Pin_15)*%
X60960000Y-50800000D03*
%TD*%
D12*
%TO.P,J4,1,Pin_1*%
%TO.N,Net-(J4-Pin_1)*%
X53340000Y-106680000D03*
D13*
%TO.P,J4,2,Pin_2*%
%TO.N,Net-(J1-Pin_15)*%
X53340000Y-104140000D03*
%TO.P,J4,3,Pin_3*%
%TO.N,GND*%
X53340000Y-101600000D03*
%TD*%
D12*
%TO.P,J6,1,Pin_1*%
%TO.N,Net-(J1-Pin_13)*%
X66040000Y-43180000D03*
D13*
%TO.P,J6,2,Pin_2*%
%TO.N,Net-(J1-Pin_12)*%
X68580000Y-43180000D03*
%TO.P,J6,3,Pin_3*%
%TO.N,Net-(J1-Pin_11)*%
X71120000Y-43180000D03*
%TO.P,J6,4,Pin_4*%
%TO.N,Net-(J1-Pin_10)*%
X73660000Y-43180000D03*
%TO.P,J6,5,Pin_5*%
%TO.N,Net-(J1-Pin_9)*%
X76200000Y-43180000D03*
%TO.P,J6,6,Pin_6*%
%TO.N,Net-(J1-Pin_8)*%
X78740000Y-43180000D03*
%TO.P,J6,7,Pin_7*%
%TO.N,Net-(J1-Pin_7)*%
X81280000Y-43180000D03*
%TO.P,J6,8,Pin_8*%
%TO.N,Net-(J1-Pin_6)*%
X83820000Y-43180000D03*
%TO.P,J6,9,Pin_9*%
%TO.N,Net-(J1-Pin_5)*%
X86360000Y-43180000D03*
%TO.P,J6,10,Pin_10*%
%TO.N,Net-(J1-Pin_4)*%
X88900000Y-43180000D03*
%TO.P,J6,11,Pin_11*%
%TO.N,Net-(J1-Pin_3)*%
X91440000Y-43180000D03*
%TO.P,J6,12,Pin_12*%
%TO.N,Net-(J1-Pin_2)*%
X93980000Y-43180000D03*
%TO.P,J6,13,Pin_13*%
%TO.N,Net-(J1-Pin_1)*%
X96520000Y-43180000D03*
%TD*%
D14*
%TO.P,SW4,1,1*%
%TO.N,Net-(J2-Pin_5)*%
X119380000Y-78450000D03*
X112880000Y-78450000D03*
%TO.P,SW4,2,2*%
%TO.N,GND*%
X119380000Y-73950000D03*
X112880000Y-73950000D03*
%TD*%
D15*
%TO.P,D3,1,K*%
%TO.N,Net-(D3-K)*%
X83820000Y-104140000D03*
D16*
%TO.P,D3,2,A*%
%TO.N,Net-(D3-A)*%
X83820000Y-101600000D03*
%TD*%
D14*
%TO.P,SW2,1,1*%
%TO.N,Net-(J2-Pin_7)*%
X119380000Y-58420000D03*
X112880000Y-58420000D03*
%TO.P,SW2,2,2*%
%TO.N,GND*%
X119380000Y-53920000D03*
X112880000Y-53920000D03*
%TD*%
D12*
%TO.P,J3,1,Pin_1*%
%TO.N,Net-(J2-Pin_14)*%
X60960000Y-81280000D03*
D13*
%TO.P,J3,2,Pin_2*%
%TO.N,Net-(J2-Pin_13)*%
X63500000Y-81280000D03*
%TO.P,J3,3,Pin_3*%
%TO.N,Net-(J2-Pin_12)*%
X66040000Y-81280000D03*
%TO.P,J3,4,Pin_4*%
%TO.N,Net-(J2-Pin_11)*%
X68580000Y-81280000D03*
%TO.P,J3,5,Pin_5*%
%TO.N,GND*%
X71120000Y-81280000D03*
%TO.P,J3,6,Pin_6*%
%TO.N,Net-(J1-Pin_15)*%
X73660000Y-81280000D03*
%TD*%
D12*
%TO.P,J7,1,Pin_1*%
%TO.N,Net-(J2-Pin_15)*%
X83820000Y-81280000D03*
D13*
%TO.P,J7,2,Pin_2*%
%TO.N,Net-(J2-Pin_10)*%
X86360000Y-81280000D03*
%TO.P,J7,3,Pin_3*%
%TO.N,Net-(J2-Pin_9)*%
X88900000Y-81280000D03*
%TO.P,J7,4,Pin_4*%
%TO.N,Net-(J2-Pin_4)*%
X91440000Y-81280000D03*
%TO.P,J7,5,Pin_5*%
%TO.N,Net-(J2-Pin_3)*%
X93980000Y-81280000D03*
%TO.P,J7,6,Pin_6*%
%TO.N,Net-(J2-Pin_2)*%
X96520000Y-81280000D03*
%TO.P,J7,7,Pin_7*%
%TO.N,Net-(J2-Pin_1)*%
X99060000Y-81280000D03*
%TD*%
D15*
%TO.P,D1,1,K*%
%TO.N,Net-(D1-K)*%
X114300000Y-104140000D03*
D16*
%TO.P,D1,2,A*%
%TO.N,Net-(D1-A)*%
X114300000Y-101600000D03*
%TD*%
D14*
%TO.P,SW1,1,1*%
%TO.N,Net-(J2-Pin_8)*%
X119380000Y-47970000D03*
X112880000Y-47970000D03*
%TO.P,SW1,2,2*%
%TO.N,GND*%
X119380000Y-43470000D03*
X112880000Y-43470000D03*
%TD*%
D15*
%TO.P,D2,1,K*%
%TO.N,Net-(D2-K)*%
X99060000Y-104140000D03*
D16*
%TO.P,D2,2,A*%
%TO.N,Net-(D2-A)*%
X99060000Y-101600000D03*
%TD*%
D10*
%TO.P,R4,1*%
%TO.N,Net-(D4-K)*%
X68580000Y-114300000D03*
D11*
%TO.P,R4,2*%
%TO.N,GND*%
X68580000Y-121920000D03*
%TD*%
D14*
%TO.P,SW3,1,1*%
%TO.N,Net-(J2-Pin_6)*%
X119380000Y-68000000D03*
X112880000Y-68000000D03*
%TO.P,SW3,2,2*%
%TO.N,GND*%
X119380000Y-63500000D03*
X112880000Y-63500000D03*
%TD*%
D15*
%TO.P,D4,1,K*%
%TO.N,Net-(D4-K)*%
X68580000Y-104140000D03*
D16*
%TO.P,D4,2,A*%
%TO.N,Net-(D4-A)*%
X68580000Y-101600000D03*
%TD*%
D17*
%TO.N,Net-(D1-K)*%
X114300000Y-104140000D02*
X114300000Y-114300000D01*
%TO.N,Net-(D1-A)*%
X110497826Y-92445131D02*
X112300689Y-92445131D01*
X112300689Y-92445131D02*
X114300000Y-94444442D01*
X114300000Y-94444442D02*
X114300000Y-101600000D01*
X109220000Y-91167305D02*
X110497826Y-92445131D01*
X109220000Y-88900000D02*
X109220000Y-91167305D01*
%TO.N,Net-(D2-K)*%
X99060000Y-104140000D02*
X99060000Y-114300000D01*
%TO.N,Net-(D2-A)*%
X104791113Y-93328887D02*
X106680000Y-91440000D01*
X99060000Y-95575649D02*
X101306762Y-93328887D01*
X106680000Y-91440000D02*
X106680000Y-88900000D01*
X99060000Y-101600000D02*
X99060000Y-95575649D01*
X101306762Y-93328887D02*
X104791113Y-93328887D01*
%TO.N,Net-(D3-K)*%
X83820000Y-104140000D02*
X83820000Y-114300000D01*
%TO.N,Net-(D3-A)*%
X104140000Y-90613857D02*
X103313857Y-91440000D01*
X103313857Y-91440000D02*
X86141337Y-91440000D01*
X83820000Y-93761337D02*
X83820000Y-101600000D01*
X104140000Y-88900000D02*
X104140000Y-90613857D01*
X86141337Y-91440000D02*
X83820000Y-93761337D01*
%TO.N,Net-(D4-K)*%
X68580000Y-104140000D02*
X68580000Y-114300000D01*
%TO.N,Net-(D4-A)*%
X68580000Y-93980000D02*
X68580000Y-101600000D01*
X73660000Y-88900000D02*
X68580000Y-93980000D01*
X101600000Y-88900000D02*
X73660000Y-88900000D01*
%TO.N,Net-(J1-Pin_1)*%
X96520000Y-43180000D02*
X96520000Y-50800000D01*
%TO.N,Net-(J1-Pin_2)*%
X93980000Y-50800000D02*
X93980000Y-43180000D01*
%TO.N,Net-(J1-Pin_3)*%
X91440000Y-43180000D02*
X91440000Y-50800000D01*
%TO.N,Net-(J1-Pin_4)*%
X88900000Y-50800000D02*
X88900000Y-43180000D01*
%TO.N,Net-(J1-Pin_5)*%
X86360000Y-43180000D02*
X86360000Y-50800000D01*
%TO.N,Net-(J1-Pin_6)*%
X83820000Y-50800000D02*
X83820000Y-43180000D01*
%TO.N,Net-(J1-Pin_7)*%
X81280000Y-43180000D02*
X81280000Y-50800000D01*
%TO.N,Net-(J1-Pin_8)*%
X78740000Y-50800000D02*
X78740000Y-43180000D01*
%TO.N,Net-(J1-Pin_9)*%
X76200000Y-43180000D02*
X76200000Y-50800000D01*
%TO.N,Net-(J1-Pin_10)*%
X73660000Y-50800000D02*
X73660000Y-43180000D01*
%TO.N,Net-(J1-Pin_11)*%
X71120000Y-43180000D02*
X71120000Y-50800000D01*
%TO.N,Net-(J1-Pin_12)*%
X68580000Y-50800000D02*
X68580000Y-43180000D01*
%TO.N,Net-(J1-Pin_13)*%
X66040000Y-43180000D02*
X66040000Y-50800000D01*
%TO.N,Net-(J1-Pin_15)*%
X73660000Y-83820000D02*
X71120000Y-86360000D01*
X63500000Y-88900000D02*
X58420000Y-93980000D01*
X71120000Y-86360000D02*
X68580000Y-88900000D01*
X58420000Y-102557026D02*
X56837026Y-104140000D01*
X55642231Y-50800000D02*
X54102163Y-52340068D01*
X60960000Y-50800000D02*
X55642231Y-50800000D01*
X54102163Y-52340068D02*
X54102163Y-83013565D01*
X58420000Y-93980000D02*
X58420000Y-102557026D01*
X57448598Y-86360000D02*
X71120000Y-86360000D01*
X68580000Y-88900000D02*
X63500000Y-88900000D01*
X54102163Y-83013565D02*
X57448598Y-86360000D01*
X56837026Y-104140000D02*
X53340000Y-104140000D01*
X73660000Y-81280000D02*
X73660000Y-83820000D01*
%TO.N,Net-(J2-Pin_1)*%
X96520000Y-73660000D02*
X96520000Y-75679756D01*
X99060000Y-78219756D02*
X99060000Y-81280000D01*
X96520000Y-75679756D02*
X99060000Y-78219756D01*
%TO.N,Net-(J2-Pin_2)*%
X93980000Y-76304502D02*
X96520000Y-78844502D01*
X96520000Y-78844502D02*
X96520000Y-81280000D01*
X93980000Y-73660000D02*
X93980000Y-76304502D01*
%TO.N,Net-(J2-Pin_3)*%
X91440000Y-73660000D02*
X91440000Y-76214628D01*
X91440000Y-76214628D02*
X93980000Y-78754628D01*
X93980000Y-78754628D02*
X93980000Y-81280000D01*
%TO.N,Net-(J2-Pin_4)*%
X91440000Y-78828095D02*
X91440000Y-81280000D01*
X91389500Y-78777595D02*
X91440000Y-78828095D01*
X88900000Y-76200000D02*
X91389500Y-78689500D01*
X91389500Y-78689500D02*
X91389500Y-78777595D01*
X88900000Y-73660000D02*
X88900000Y-76200000D01*
%TO.N,Net-(J2-Pin_5)*%
X106390000Y-78450000D02*
X104140000Y-76200000D01*
X87186444Y-70293556D02*
X86360000Y-71120000D01*
X104140000Y-76200000D02*
X104140000Y-73251939D01*
X86360000Y-71120000D02*
X86360000Y-73660000D01*
X101181617Y-70293556D02*
X87186444Y-70293556D01*
X104140000Y-73251939D02*
X101181617Y-70293556D01*
X112880000Y-78450000D02*
X119380000Y-78450000D01*
X112880000Y-78450000D02*
X106390000Y-78450000D01*
%TO.N,Net-(J2-Pin_6)*%
X112880000Y-68000000D02*
X119380000Y-68000000D01*
X85742481Y-68000000D02*
X112880000Y-68000000D01*
X83820000Y-73660000D02*
X83820000Y-69922481D01*
X83820000Y-69922481D02*
X85742481Y-68000000D01*
%TO.N,Net-(J2-Pin_7)*%
X82674912Y-58420000D02*
X112880000Y-58420000D01*
X112880000Y-58420000D02*
X119380000Y-58420000D01*
X81280000Y-73660000D02*
X81280000Y-59814912D01*
X81280000Y-59814912D02*
X82674912Y-58420000D01*
%TO.N,Net-(J2-Pin_8)*%
X112880000Y-47970000D02*
X103368101Y-47970000D01*
X100608895Y-50729206D02*
X100608895Y-54835209D01*
X119380000Y-47970000D02*
X112880000Y-47970000D01*
X100608895Y-54835209D02*
X99193031Y-56251073D01*
X78740000Y-58722643D02*
X78740000Y-73660000D01*
X103368101Y-47970000D02*
X100608895Y-50729206D01*
X81211570Y-56251073D02*
X78740000Y-58722643D01*
X99193031Y-56251073D02*
X81211570Y-56251073D01*
%TO.N,Net-(J2-Pin_9)*%
X76200000Y-73660000D02*
X76200000Y-76302125D01*
X88900000Y-78125689D02*
X88900000Y-81280000D01*
X76200000Y-76302125D02*
X76980800Y-77082925D01*
X76980800Y-77082925D02*
X87857236Y-77082925D01*
X87857236Y-77082925D02*
X88900000Y-78125689D01*
%TO.N,Net-(J2-Pin_10)*%
X86367274Y-78781221D02*
X86360000Y-78788495D01*
X73660000Y-76241431D02*
X75698124Y-78279555D01*
X75698124Y-78279555D02*
X85865608Y-78279555D01*
X73660000Y-73660000D02*
X73660000Y-76241431D01*
X86360000Y-78788495D02*
X86360000Y-81280000D01*
X85865608Y-78279555D02*
X86367274Y-78781221D01*
%TO.N,Net-(J2-Pin_11)*%
X68580000Y-78740000D02*
X68580000Y-81280000D01*
X71120000Y-73660000D02*
X71120000Y-76200000D01*
X71120000Y-76200000D02*
X68580000Y-78740000D01*
%TO.N,Net-(J2-Pin_12)*%
X68580000Y-76200000D02*
X66040000Y-78740000D01*
X66040000Y-78740000D02*
X66040000Y-81280000D01*
X68580000Y-73660000D02*
X68580000Y-76200000D01*
%TO.N,Net-(J2-Pin_13)*%
X66040000Y-76588827D02*
X63500000Y-79128827D01*
X63500000Y-79128827D02*
X63500000Y-81280000D01*
X66040000Y-73660000D02*
X66040000Y-76588827D01*
%TO.N,Net-(J2-Pin_14)*%
X63500000Y-73660000D02*
X63500000Y-76284695D01*
X63500000Y-76284695D02*
X60960000Y-78824695D01*
X60960000Y-78824695D02*
X60960000Y-81280000D01*
%TO.N,Net-(J4-Pin_1)*%
X74688873Y-85387225D02*
X110051443Y-85387225D01*
X111760000Y-88900000D02*
X114300000Y-88900000D01*
X60808238Y-95246883D02*
X64608888Y-91446233D01*
X68629865Y-91446233D02*
X74688873Y-85387225D01*
X58078058Y-106680000D02*
X60789029Y-103969029D01*
X114300000Y-88900000D02*
X116840000Y-88900000D01*
X116840000Y-88900000D02*
X119380000Y-88900000D01*
X60789029Y-103969029D02*
X60808238Y-103949821D01*
X64608888Y-91446233D02*
X68629865Y-91446233D01*
X60808238Y-103949821D02*
X60808238Y-95246883D01*
X110051443Y-85387225D02*
X111760000Y-87095782D01*
X53340000Y-106680000D02*
X58078058Y-106680000D01*
X111760000Y-87095782D02*
X111760000Y-88900000D01*
%TD*%
%TA.AperFunction,Conductor*%
%TO.N,GND*%
G36*
X126442539Y-38620185D02*
G01*
X126488294Y-38672989D01*
X126499500Y-38724500D01*
X126499500Y-123835500D01*
X126479815Y-123902539D01*
X126427011Y-123948294D01*
X126375500Y-123959500D01*
X48884500Y-123959500D01*
X48817461Y-123939815D01*
X48771706Y-123887011D01*
X48760500Y-123835500D01*
X48760500Y-122170000D01*
X67403505Y-122170000D01*
X67456239Y-122355349D01*
X67555368Y-122554425D01*
X67689391Y-122731900D01*
X67853738Y-122881721D01*
X68042820Y-122998797D01*
X68042822Y-122998798D01*
X68250195Y-123079135D01*
X68330000Y-123094052D01*
X68330000Y-122170000D01*
X67403505Y-122170000D01*
X48760500Y-122170000D01*
X48760500Y-121949302D01*
X68226372Y-121949302D01*
X68255047Y-122062538D01*
X68318936Y-122160327D01*
X68411115Y-122232072D01*
X68521595Y-122270000D01*
X68609005Y-122270000D01*
X68695216Y-122255614D01*
X68797947Y-122200019D01*
X68825581Y-122170000D01*
X68830000Y-122170000D01*
X68830000Y-123094052D01*
X68909804Y-123079135D01*
X69117177Y-122998798D01*
X69117179Y-122998797D01*
X69306261Y-122881721D01*
X69470608Y-122731900D01*
X69604631Y-122554425D01*
X69703760Y-122355349D01*
X69756495Y-122170000D01*
X82643505Y-122170000D01*
X82696239Y-122355349D01*
X82795368Y-122554425D01*
X82929391Y-122731900D01*
X83093738Y-122881721D01*
X83282820Y-122998797D01*
X83282822Y-122998798D01*
X83490195Y-123079135D01*
X83570000Y-123094052D01*
X83570000Y-122170000D01*
X82643505Y-122170000D01*
X69756495Y-122170000D01*
X68830000Y-122170000D01*
X68825581Y-122170000D01*
X68877060Y-122114079D01*
X68923982Y-122007108D01*
X68928772Y-121949302D01*
X83466372Y-121949302D01*
X83495047Y-122062538D01*
X83558936Y-122160327D01*
X83651115Y-122232072D01*
X83761595Y-122270000D01*
X83849005Y-122270000D01*
X83935216Y-122255614D01*
X84037947Y-122200019D01*
X84065581Y-122170000D01*
X84070000Y-122170000D01*
X84070000Y-123094052D01*
X84149804Y-123079135D01*
X84357177Y-122998798D01*
X84357179Y-122998797D01*
X84546261Y-122881721D01*
X84710608Y-122731900D01*
X84844631Y-122554425D01*
X84943760Y-122355349D01*
X84996495Y-122170000D01*
X97883505Y-122170000D01*
X97936239Y-122355349D01*
X98035368Y-122554425D01*
X98169391Y-122731900D01*
X98333738Y-122881721D01*
X98522820Y-122998797D01*
X98522822Y-122998798D01*
X98730195Y-123079135D01*
X98810000Y-123094052D01*
X98810000Y-122170000D01*
X97883505Y-122170000D01*
X84996495Y-122170000D01*
X84070000Y-122170000D01*
X84065581Y-122170000D01*
X84117060Y-122114079D01*
X84163982Y-122007108D01*
X84168772Y-121949302D01*
X98706372Y-121949302D01*
X98735047Y-122062538D01*
X98798936Y-122160327D01*
X98891115Y-122232072D01*
X99001595Y-122270000D01*
X99089005Y-122270000D01*
X99175216Y-122255614D01*
X99277947Y-122200019D01*
X99305581Y-122170000D01*
X99310000Y-122170000D01*
X99310000Y-123094052D01*
X99389804Y-123079135D01*
X99597177Y-122998798D01*
X99597179Y-122998797D01*
X99786261Y-122881721D01*
X99950608Y-122731900D01*
X100084631Y-122554425D01*
X100183760Y-122355349D01*
X100236495Y-122170000D01*
X113123505Y-122170000D01*
X113176239Y-122355349D01*
X113275368Y-122554425D01*
X113409391Y-122731900D01*
X113573738Y-122881721D01*
X113762820Y-122998797D01*
X113762822Y-122998798D01*
X113970195Y-123079134D01*
X114049999Y-123094052D01*
X114050000Y-122170000D01*
X113123505Y-122170000D01*
X100236495Y-122170000D01*
X99310000Y-122170000D01*
X99305581Y-122170000D01*
X99357060Y-122114079D01*
X99403982Y-122007108D01*
X99408772Y-121949302D01*
X113946372Y-121949302D01*
X113975047Y-122062538D01*
X114038936Y-122160327D01*
X114131115Y-122232072D01*
X114241595Y-122270000D01*
X114329005Y-122270000D01*
X114415216Y-122255614D01*
X114517947Y-122200019D01*
X114545581Y-122170000D01*
X114550000Y-122170000D01*
X114550000Y-123094052D01*
X114629804Y-123079135D01*
X114837177Y-122998798D01*
X114837179Y-122998797D01*
X115026261Y-122881721D01*
X115190608Y-122731900D01*
X115324631Y-122554425D01*
X115423760Y-122355349D01*
X115476495Y-122170000D01*
X114550000Y-122170000D01*
X114545581Y-122170000D01*
X114597060Y-122114079D01*
X114643982Y-122007108D01*
X114653628Y-121890698D01*
X114624953Y-121777462D01*
X114561064Y-121679673D01*
X114468885Y-121607928D01*
X114358405Y-121570000D01*
X114270995Y-121570000D01*
X114184784Y-121584386D01*
X114082053Y-121639981D01*
X114002940Y-121725921D01*
X113956018Y-121832892D01*
X113946372Y-121949302D01*
X99408772Y-121949302D01*
X99413628Y-121890698D01*
X99384953Y-121777462D01*
X99321064Y-121679673D01*
X99228885Y-121607928D01*
X99118405Y-121570000D01*
X99030995Y-121570000D01*
X98944784Y-121584386D01*
X98842053Y-121639981D01*
X98762940Y-121725921D01*
X98716018Y-121832892D01*
X98706372Y-121949302D01*
X84168772Y-121949302D01*
X84173628Y-121890698D01*
X84144953Y-121777462D01*
X84081064Y-121679673D01*
X83988885Y-121607928D01*
X83878405Y-121570000D01*
X83790995Y-121570000D01*
X83704784Y-121584386D01*
X83602053Y-121639981D01*
X83522940Y-121725921D01*
X83476018Y-121832892D01*
X83466372Y-121949302D01*
X68928772Y-121949302D01*
X68933628Y-121890698D01*
X68904953Y-121777462D01*
X68841064Y-121679673D01*
X68748885Y-121607928D01*
X68638405Y-121570000D01*
X68550995Y-121570000D01*
X68464784Y-121584386D01*
X68362053Y-121639981D01*
X68282940Y-121725921D01*
X68236018Y-121832892D01*
X68226372Y-121949302D01*
X48760500Y-121949302D01*
X48760500Y-121670000D01*
X67403505Y-121670000D01*
X68330000Y-121670000D01*
X68330000Y-120745946D01*
X68830000Y-120745946D01*
X68830000Y-121670000D01*
X69756495Y-121670000D01*
X82643505Y-121670000D01*
X83570000Y-121670000D01*
X83570000Y-120745946D01*
X84070000Y-120745946D01*
X84070000Y-121670000D01*
X84996495Y-121670000D01*
X97883505Y-121670000D01*
X98810000Y-121670000D01*
X98810000Y-120745946D01*
X99310000Y-120745946D01*
X99310000Y-121670000D01*
X100236495Y-121670000D01*
X113123505Y-121670000D01*
X114049999Y-121670000D01*
X114049999Y-120745946D01*
X114550000Y-120745946D01*
X114550000Y-121670000D01*
X115476495Y-121670000D01*
X115423760Y-121484650D01*
X115324631Y-121285574D01*
X115190608Y-121108099D01*
X115026261Y-120958278D01*
X114837179Y-120841202D01*
X114837177Y-120841201D01*
X114629799Y-120760864D01*
X114550000Y-120745946D01*
X114049999Y-120745946D01*
X114049997Y-120745945D01*
X113970207Y-120760861D01*
X113970202Y-120760863D01*
X113762822Y-120841201D01*
X113762820Y-120841202D01*
X113573738Y-120958278D01*
X113409391Y-121108099D01*
X113275368Y-121285574D01*
X113176239Y-121484650D01*
X113123505Y-121670000D01*
X100236495Y-121670000D01*
X100183760Y-121484650D01*
X100084631Y-121285574D01*
X99950608Y-121108099D01*
X99786261Y-120958278D01*
X99597179Y-120841202D01*
X99597177Y-120841201D01*
X99389799Y-120760864D01*
X99310000Y-120745946D01*
X98810000Y-120745946D01*
X98730200Y-120760864D01*
X98522822Y-120841201D01*
X98522820Y-120841202D01*
X98333738Y-120958278D01*
X98169391Y-121108099D01*
X98035368Y-121285574D01*
X97936239Y-121484650D01*
X97883505Y-121670000D01*
X84996495Y-121670000D01*
X84943760Y-121484650D01*
X84844631Y-121285574D01*
X84710608Y-121108099D01*
X84546261Y-120958278D01*
X84357179Y-120841202D01*
X84357177Y-120841201D01*
X84149799Y-120760864D01*
X84070000Y-120745946D01*
X83570000Y-120745946D01*
X83490200Y-120760864D01*
X83282822Y-120841201D01*
X83282820Y-120841202D01*
X83093738Y-120958278D01*
X82929391Y-121108099D01*
X82795368Y-121285574D01*
X82696239Y-121484650D01*
X82643505Y-121670000D01*
X69756495Y-121670000D01*
X69703760Y-121484650D01*
X69604631Y-121285574D01*
X69470608Y-121108099D01*
X69306261Y-120958278D01*
X69117179Y-120841202D01*
X69117177Y-120841201D01*
X68909799Y-120760864D01*
X68830000Y-120745946D01*
X68330000Y-120745946D01*
X68250200Y-120760864D01*
X68042822Y-120841201D01*
X68042820Y-120841202D01*
X67853738Y-120958278D01*
X67689391Y-121108099D01*
X67555368Y-121285574D01*
X67456239Y-121484650D01*
X67403505Y-121670000D01*
X48760500Y-121670000D01*
X48760500Y-104140000D01*
X51984341Y-104140000D01*
X52004936Y-104375403D01*
X52004938Y-104375413D01*
X52066094Y-104603655D01*
X52066097Y-104603663D01*
X52165965Y-104817830D01*
X52165967Y-104817834D01*
X52274281Y-104972521D01*
X52301501Y-105011396D01*
X52301506Y-105011402D01*
X52423430Y-105133326D01*
X52456915Y-105194649D01*
X52451931Y-105264341D01*
X52410059Y-105320274D01*
X52379083Y-105337189D01*
X52247669Y-105386203D01*
X52247664Y-105386206D01*
X52132455Y-105472452D01*
X52132452Y-105472455D01*
X52046206Y-105587664D01*
X52046202Y-105587671D01*
X51995908Y-105722517D01*
X51989501Y-105782116D01*
X51989501Y-105782123D01*
X51989500Y-105782135D01*
X51989500Y-107577870D01*
X51989501Y-107577876D01*
X51995908Y-107637483D01*
X52046202Y-107772328D01*
X52046206Y-107772335D01*
X52132452Y-107887544D01*
X52132455Y-107887547D01*
X52247664Y-107973793D01*
X52247671Y-107973797D01*
X52382517Y-108024091D01*
X52382516Y-108024091D01*
X52389444Y-108024835D01*
X52442127Y-108030500D01*
X54237872Y-108030499D01*
X54297483Y-108024091D01*
X54432331Y-107973796D01*
X54547546Y-107887546D01*
X54633796Y-107772331D01*
X54684091Y-107637483D01*
X54690500Y-107577873D01*
X54690500Y-107404500D01*
X54710185Y-107337461D01*
X54762989Y-107291706D01*
X54814500Y-107280500D01*
X58034630Y-107280500D01*
X58042728Y-107281030D01*
X58078058Y-107285682D01*
X58078059Y-107285682D01*
X58130312Y-107278802D01*
X58234820Y-107265044D01*
X58380899Y-107204536D01*
X58506340Y-107108282D01*
X58528041Y-107079999D01*
X58533369Y-107073922D01*
X61202145Y-104405146D01*
X61208235Y-104399805D01*
X61236520Y-104378103D01*
X61282920Y-104317632D01*
X61332084Y-104253564D01*
X61332775Y-104252700D01*
X61333114Y-104251840D01*
X61362938Y-104179839D01*
X61393278Y-104106598D01*
X61393279Y-104106590D01*
X61393282Y-104106583D01*
X61403224Y-104031060D01*
X61413920Y-103949837D01*
X61411168Y-103928933D01*
X61409269Y-103914496D01*
X61408738Y-103906397D01*
X61408738Y-95546980D01*
X61428423Y-95479941D01*
X61445057Y-95459299D01*
X64821304Y-92083052D01*
X64882627Y-92049567D01*
X64908985Y-92046733D01*
X68586437Y-92046733D01*
X68594535Y-92047263D01*
X68629865Y-92051915D01*
X68629866Y-92051915D01*
X68682119Y-92045035D01*
X68786627Y-92031277D01*
X68932706Y-91970769D01*
X68998094Y-91920595D01*
X69058147Y-91874515D01*
X69079849Y-91846231D01*
X69085175Y-91840156D01*
X74901288Y-86024044D01*
X74962612Y-85990559D01*
X74988970Y-85987725D01*
X109751346Y-85987725D01*
X109818385Y-86007410D01*
X109839027Y-86024044D01*
X111123181Y-87308198D01*
X111156666Y-87369521D01*
X111159500Y-87395879D01*
X111159500Y-87610908D01*
X111139815Y-87677947D01*
X111087914Y-87723286D01*
X111082173Y-87725963D01*
X111082169Y-87725965D01*
X110888597Y-87861505D01*
X110721508Y-88028594D01*
X110591574Y-88214159D01*
X110536997Y-88257784D01*
X110467498Y-88264976D01*
X110405144Y-88233454D01*
X110388424Y-88214158D01*
X110258494Y-88028597D01*
X110091402Y-87861506D01*
X110091395Y-87861501D01*
X109897834Y-87725967D01*
X109897830Y-87725965D01*
X109892085Y-87723286D01*
X109683663Y-87626097D01*
X109683659Y-87626096D01*
X109683655Y-87626094D01*
X109455413Y-87564938D01*
X109455403Y-87564936D01*
X109220001Y-87544341D01*
X109219999Y-87544341D01*
X108984596Y-87564936D01*
X108984586Y-87564938D01*
X108756344Y-87626094D01*
X108756335Y-87626098D01*
X108542171Y-87725964D01*
X108542169Y-87725965D01*
X108348597Y-87861505D01*
X108181505Y-88028597D01*
X108051575Y-88214158D01*
X107996998Y-88257783D01*
X107927500Y-88264977D01*
X107865145Y-88233454D01*
X107848425Y-88214158D01*
X107718494Y-88028597D01*
X107551402Y-87861506D01*
X107551395Y-87861501D01*
X107357834Y-87725967D01*
X107357830Y-87725965D01*
X107352085Y-87723286D01*
X107143663Y-87626097D01*
X107143659Y-87626096D01*
X107143655Y-87626094D01*
X106915413Y-87564938D01*
X106915403Y-87564936D01*
X106680001Y-87544341D01*
X106679999Y-87544341D01*
X106444596Y-87564936D01*
X106444586Y-87564938D01*
X106216344Y-87626094D01*
X106216335Y-87626098D01*
X106002171Y-87725964D01*
X106002169Y-87725965D01*
X105808597Y-87861505D01*
X105641505Y-88028597D01*
X105511575Y-88214158D01*
X105456998Y-88257783D01*
X105387500Y-88264977D01*
X105325145Y-88233454D01*
X105308425Y-88214158D01*
X105178494Y-88028597D01*
X105011402Y-87861506D01*
X105011395Y-87861501D01*
X104817834Y-87725967D01*
X104817830Y-87725965D01*
X104812085Y-87723286D01*
X104603663Y-87626097D01*
X104603659Y-87626096D01*
X104603655Y-87626094D01*
X104375413Y-87564938D01*
X104375403Y-87564936D01*
X104140001Y-87544341D01*
X104139999Y-87544341D01*
X103904596Y-87564936D01*
X103904586Y-87564938D01*
X103676344Y-87626094D01*
X103676335Y-87626098D01*
X103462171Y-87725964D01*
X103462169Y-87725965D01*
X103268600Y-87861503D01*
X103146673Y-87983430D01*
X103085350Y-88016914D01*
X103015658Y-88011930D01*
X102959725Y-87970058D01*
X102942810Y-87939081D01*
X102893797Y-87807671D01*
X102893793Y-87807664D01*
X102807547Y-87692455D01*
X102807544Y-87692452D01*
X102692335Y-87606206D01*
X102692328Y-87606202D01*
X102557482Y-87555908D01*
X102557483Y-87555908D01*
X102497883Y-87549501D01*
X102497881Y-87549500D01*
X102497873Y-87549500D01*
X102497864Y-87549500D01*
X100702129Y-87549500D01*
X100702123Y-87549501D01*
X100642516Y-87555908D01*
X100507671Y-87606202D01*
X100507664Y-87606206D01*
X100392455Y-87692452D01*
X100392452Y-87692455D01*
X100306206Y-87807664D01*
X100306202Y-87807671D01*
X100255908Y-87942517D01*
X100249501Y-88002116D01*
X100249500Y-88002135D01*
X100249500Y-88175500D01*
X100229815Y-88242539D01*
X100177011Y-88288294D01*
X100125500Y-88299500D01*
X73703428Y-88299500D01*
X73695329Y-88298969D01*
X73660000Y-88294318D01*
X73620639Y-88299500D01*
X73503239Y-88314955D01*
X73503237Y-88314956D01*
X73357160Y-88375463D01*
X73231714Y-88471721D01*
X73210024Y-88499990D01*
X73204671Y-88506094D01*
X68186096Y-93524668D01*
X68179994Y-93530019D01*
X68151716Y-93551719D01*
X68055464Y-93677157D01*
X67994956Y-93823237D01*
X67994956Y-93823238D01*
X67974318Y-93980000D01*
X67976222Y-93994465D01*
X67978969Y-94015326D01*
X67979500Y-94023428D01*
X67979500Y-100258655D01*
X67959815Y-100325694D01*
X67914519Y-100367709D01*
X67811376Y-100423528D01*
X67811365Y-100423535D01*
X67628222Y-100566081D01*
X67628219Y-100566084D01*
X67471016Y-100736852D01*
X67344075Y-100931151D01*
X67250842Y-101143699D01*
X67193866Y-101368691D01*
X67193864Y-101368702D01*
X67174700Y-101599993D01*
X67174700Y-101600006D01*
X67193864Y-101831297D01*
X67193866Y-101831308D01*
X67250842Y-102056300D01*
X67344075Y-102268848D01*
X67471016Y-102463147D01*
X67471019Y-102463151D01*
X67471021Y-102463153D01*
X67565803Y-102566114D01*
X67596724Y-102628767D01*
X67588864Y-102698193D01*
X67544716Y-102752348D01*
X67517906Y-102766277D01*
X67437669Y-102796203D01*
X67437664Y-102796206D01*
X67322455Y-102882452D01*
X67322452Y-102882455D01*
X67236206Y-102997664D01*
X67236202Y-102997671D01*
X67185908Y-103132517D01*
X67179501Y-103192116D01*
X67179501Y-103192123D01*
X67179500Y-103192135D01*
X67179500Y-105087870D01*
X67179501Y-105087876D01*
X67185908Y-105147483D01*
X67236202Y-105282328D01*
X67236206Y-105282335D01*
X67322452Y-105397544D01*
X67322455Y-105397547D01*
X67437664Y-105483793D01*
X67437671Y-105483797D01*
X67482618Y-105500560D01*
X67572517Y-105534091D01*
X67632127Y-105540500D01*
X67855500Y-105540499D01*
X67922539Y-105560183D01*
X67968294Y-105612987D01*
X67979500Y-105664499D01*
X67979500Y-113190754D01*
X67959815Y-113257793D01*
X67920778Y-113296181D01*
X67853436Y-113337877D01*
X67689020Y-113487761D01*
X67554943Y-113665308D01*
X67554938Y-113665316D01*
X67455775Y-113864461D01*
X67455769Y-113864476D01*
X67394885Y-114078462D01*
X67394884Y-114078464D01*
X67374357Y-114299999D01*
X67374357Y-114300000D01*
X67394884Y-114521535D01*
X67394885Y-114521537D01*
X67455769Y-114735523D01*
X67455775Y-114735538D01*
X67554938Y-114934683D01*
X67554943Y-114934691D01*
X67689020Y-115112238D01*
X67853437Y-115262123D01*
X67853439Y-115262125D01*
X68042595Y-115379245D01*
X68042596Y-115379245D01*
X68042599Y-115379247D01*
X68250060Y-115459618D01*
X68468757Y-115500500D01*
X68468759Y-115500500D01*
X68691241Y-115500500D01*
X68691243Y-115500500D01*
X68909940Y-115459618D01*
X69117401Y-115379247D01*
X69306562Y-115262124D01*
X69470981Y-115112236D01*
X69605058Y-114934689D01*
X69704229Y-114735528D01*
X69765115Y-114521536D01*
X69785643Y-114300000D01*
X69765115Y-114078464D01*
X69704229Y-113864472D01*
X69704224Y-113864461D01*
X69605061Y-113665316D01*
X69605056Y-113665308D01*
X69470979Y-113487761D01*
X69306563Y-113337877D01*
X69306562Y-113337876D01*
X69239221Y-113296180D01*
X69192587Y-113244153D01*
X69180500Y-113190754D01*
X69180500Y-105664499D01*
X69200185Y-105597460D01*
X69252989Y-105551705D01*
X69304500Y-105540499D01*
X69527871Y-105540499D01*
X69527872Y-105540499D01*
X69587483Y-105534091D01*
X69722331Y-105483796D01*
X69837546Y-105397546D01*
X69923796Y-105282331D01*
X69974091Y-105147483D01*
X69980500Y-105087873D01*
X69980499Y-103192128D01*
X69974091Y-103132517D01*
X69962525Y-103101508D01*
X69923797Y-102997671D01*
X69923793Y-102997664D01*
X69837547Y-102882455D01*
X69837544Y-102882452D01*
X69722335Y-102796206D01*
X69722328Y-102796202D01*
X69642094Y-102766277D01*
X69586160Y-102724406D01*
X69561743Y-102658941D01*
X69576595Y-102590668D01*
X69594190Y-102566121D01*
X69688979Y-102463153D01*
X69815924Y-102268849D01*
X69909157Y-102056300D01*
X69966134Y-101831305D01*
X69966135Y-101831297D01*
X69985300Y-101600006D01*
X69985300Y-101599993D01*
X69966135Y-101368702D01*
X69966133Y-101368691D01*
X69909157Y-101143699D01*
X69815924Y-100931151D01*
X69688983Y-100736852D01*
X69688980Y-100736849D01*
X69688979Y-100736847D01*
X69531784Y-100566087D01*
X69531779Y-100566083D01*
X69531777Y-100566081D01*
X69348634Y-100423535D01*
X69348623Y-100423528D01*
X69245481Y-100367709D01*
X69195891Y-100318489D01*
X69180500Y-100258655D01*
X69180500Y-94280096D01*
X69200185Y-94213057D01*
X69216814Y-94192420D01*
X73872416Y-89536818D01*
X73933739Y-89503334D01*
X73960097Y-89500500D01*
X100125501Y-89500500D01*
X100192540Y-89520185D01*
X100238295Y-89572989D01*
X100249501Y-89624500D01*
X100249501Y-89797876D01*
X100255908Y-89857483D01*
X100306202Y-89992328D01*
X100306206Y-89992335D01*
X100392452Y-90107544D01*
X100392455Y-90107547D01*
X100507664Y-90193793D01*
X100507671Y-90193797D01*
X100642517Y-90244091D01*
X100642516Y-90244091D01*
X100649444Y-90244835D01*
X100702127Y-90250500D01*
X102497872Y-90250499D01*
X102557483Y-90244091D01*
X102692331Y-90193796D01*
X102807546Y-90107546D01*
X102893796Y-89992331D01*
X102942810Y-89860916D01*
X102984681Y-89804984D01*
X103050145Y-89780566D01*
X103118418Y-89795417D01*
X103146672Y-89816569D01*
X103268599Y-89938495D01*
X103365384Y-90006264D01*
X103462165Y-90074032D01*
X103462167Y-90074033D01*
X103462170Y-90074035D01*
X103467898Y-90076706D01*
X103520339Y-90122872D01*
X103539500Y-90189090D01*
X103539500Y-90313760D01*
X103519815Y-90380799D01*
X103503181Y-90401441D01*
X103101441Y-90803181D01*
X103040118Y-90836666D01*
X103013760Y-90839500D01*
X86184765Y-90839500D01*
X86176666Y-90838969D01*
X86141337Y-90834318D01*
X86141336Y-90834318D01*
X86054631Y-90845733D01*
X85984576Y-90854955D01*
X85984574Y-90854956D01*
X85838497Y-90915463D01*
X85713051Y-91011721D01*
X85691361Y-91039990D01*
X85686008Y-91046094D01*
X83426096Y-93306005D01*
X83419993Y-93311357D01*
X83391718Y-93333054D01*
X83367549Y-93364550D01*
X83367550Y-93364551D01*
X83295464Y-93458495D01*
X83295461Y-93458500D01*
X83234957Y-93604571D01*
X83234955Y-93604576D01*
X83214318Y-93761335D01*
X83214318Y-93761336D01*
X83218969Y-93796663D01*
X83219500Y-93804765D01*
X83219500Y-100258655D01*
X83199815Y-100325694D01*
X83154519Y-100367709D01*
X83051376Y-100423528D01*
X83051365Y-100423535D01*
X82868222Y-100566081D01*
X82868219Y-100566084D01*
X82711016Y-100736852D01*
X82584075Y-100931151D01*
X82490842Y-101143699D01*
X82433866Y-101368691D01*
X82433864Y-101368702D01*
X82414700Y-101599993D01*
X82414700Y-101600006D01*
X82433864Y-101831297D01*
X82433866Y-101831308D01*
X82490842Y-102056300D01*
X82584075Y-102268848D01*
X82711016Y-102463147D01*
X82711019Y-102463151D01*
X82711021Y-102463153D01*
X82805803Y-102566114D01*
X82836724Y-102628767D01*
X82828864Y-102698193D01*
X82784716Y-102752348D01*
X82757906Y-102766277D01*
X82677669Y-102796203D01*
X82677664Y-102796206D01*
X82562455Y-102882452D01*
X82562452Y-102882455D01*
X82476206Y-102997664D01*
X82476202Y-102997671D01*
X82425908Y-103132517D01*
X82419501Y-103192116D01*
X82419501Y-103192123D01*
X82419500Y-103192135D01*
X82419500Y-105087870D01*
X82419501Y-105087876D01*
X82425908Y-105147483D01*
X82476202Y-105282328D01*
X82476206Y-105282335D01*
X82562452Y-105397544D01*
X82562455Y-105397547D01*
X82677664Y-105483793D01*
X82677671Y-105483797D01*
X82722618Y-105500560D01*
X82812517Y-105534091D01*
X82872127Y-105540500D01*
X83095500Y-105540499D01*
X83162539Y-105560183D01*
X83208294Y-105612987D01*
X83219500Y-105664499D01*
X83219500Y-113190754D01*
X83199815Y-113257793D01*
X83160778Y-113296181D01*
X83093436Y-113337877D01*
X82929020Y-113487761D01*
X82794943Y-113665308D01*
X82794938Y-113665316D01*
X82695775Y-113864461D01*
X82695769Y-113864476D01*
X82634885Y-114078462D01*
X82634884Y-114078464D01*
X82614357Y-114299999D01*
X82614357Y-114300000D01*
X82634884Y-114521535D01*
X82634885Y-114521537D01*
X82695769Y-114735523D01*
X82695775Y-114735538D01*
X82794938Y-114934683D01*
X82794943Y-114934691D01*
X82929020Y-115112238D01*
X83093437Y-115262123D01*
X83093439Y-115262125D01*
X83282595Y-115379245D01*
X83282596Y-115379245D01*
X83282599Y-115379247D01*
X83490060Y-115459618D01*
X83708757Y-115500500D01*
X83708759Y-115500500D01*
X83931241Y-115500500D01*
X83931243Y-115500500D01*
X84149940Y-115459618D01*
X84357401Y-115379247D01*
X84546562Y-115262124D01*
X84710981Y-115112236D01*
X84845058Y-114934689D01*
X84944229Y-114735528D01*
X85005115Y-114521536D01*
X85025643Y-114300000D01*
X85005115Y-114078464D01*
X84944229Y-113864472D01*
X84944224Y-113864461D01*
X84845061Y-113665316D01*
X84845056Y-113665308D01*
X84710979Y-113487761D01*
X84546563Y-113337877D01*
X84546562Y-113337876D01*
X84479221Y-113296180D01*
X84432587Y-113244153D01*
X84420500Y-113190754D01*
X84420500Y-105664499D01*
X84440185Y-105597460D01*
X84492989Y-105551705D01*
X84544500Y-105540499D01*
X84767871Y-105540499D01*
X84767872Y-105540499D01*
X84827483Y-105534091D01*
X84962331Y-105483796D01*
X85077546Y-105397546D01*
X85163796Y-105282331D01*
X85214091Y-105147483D01*
X85220500Y-105087873D01*
X85220499Y-103192128D01*
X85214091Y-103132517D01*
X85202525Y-103101508D01*
X85163797Y-102997671D01*
X85163793Y-102997664D01*
X85077547Y-102882455D01*
X85077544Y-102882452D01*
X84962335Y-102796206D01*
X84962328Y-102796202D01*
X84882094Y-102766277D01*
X84826160Y-102724406D01*
X84801743Y-102658941D01*
X84816595Y-102590668D01*
X84834190Y-102566121D01*
X84928979Y-102463153D01*
X85055924Y-102268849D01*
X85149157Y-102056300D01*
X85206134Y-101831305D01*
X85206135Y-101831297D01*
X85225300Y-101600006D01*
X85225300Y-101599993D01*
X85206135Y-101368702D01*
X85206133Y-101368691D01*
X85149157Y-101143699D01*
X85055924Y-100931151D01*
X84928983Y-100736852D01*
X84928980Y-100736849D01*
X84928979Y-100736847D01*
X84771784Y-100566087D01*
X84771779Y-100566083D01*
X84771777Y-100566081D01*
X84588634Y-100423535D01*
X84588623Y-100423528D01*
X84485481Y-100367709D01*
X84435891Y-100318489D01*
X84420500Y-100258655D01*
X84420500Y-94061434D01*
X84440185Y-93994395D01*
X84456819Y-93973753D01*
X86353753Y-92076819D01*
X86415076Y-92043334D01*
X86441434Y-92040500D01*
X103270429Y-92040500D01*
X103278527Y-92041030D01*
X103313857Y-92045682D01*
X103313858Y-92045682D01*
X103366110Y-92038802D01*
X103470619Y-92025044D01*
X103616698Y-91964536D01*
X103673963Y-91920595D01*
X103742139Y-91868282D01*
X103763840Y-91839999D01*
X103769168Y-91833922D01*
X104533922Y-91069168D01*
X104539999Y-91063840D01*
X104568282Y-91042139D01*
X104664536Y-90916698D01*
X104725044Y-90770619D01*
X104740500Y-90653218D01*
X104745682Y-90613857D01*
X104741028Y-90578510D01*
X104740499Y-90570443D01*
X104740499Y-90189090D01*
X104760184Y-90122052D01*
X104812101Y-90076706D01*
X104817830Y-90074035D01*
X105011401Y-89938495D01*
X105178495Y-89771401D01*
X105308424Y-89585842D01*
X105363002Y-89542217D01*
X105432500Y-89535023D01*
X105494855Y-89566546D01*
X105511575Y-89585842D01*
X105641500Y-89771395D01*
X105641505Y-89771401D01*
X105808599Y-89938495D01*
X105905384Y-90006264D01*
X106002165Y-90074032D01*
X106002167Y-90074033D01*
X106002170Y-90074035D01*
X106007898Y-90076706D01*
X106060339Y-90122872D01*
X106079500Y-90189090D01*
X106079500Y-91139902D01*
X106059815Y-91206941D01*
X106043181Y-91227583D01*
X104578697Y-92692068D01*
X104517374Y-92725553D01*
X104491016Y-92728387D01*
X101350190Y-92728387D01*
X101342091Y-92727856D01*
X101306762Y-92723205D01*
X101267401Y-92728387D01*
X101150001Y-92743842D01*
X101149999Y-92743843D01*
X101003922Y-92804350D01*
X100878476Y-92900608D01*
X100856786Y-92928877D01*
X100851433Y-92934981D01*
X98666096Y-95120317D01*
X98659993Y-95125669D01*
X98631718Y-95147366D01*
X98607549Y-95178862D01*
X98607550Y-95178863D01*
X98535464Y-95272807D01*
X98535461Y-95272812D01*
X98474957Y-95418883D01*
X98474955Y-95418888D01*
X98454318Y-95575647D01*
X98454318Y-95575648D01*
X98458969Y-95610975D01*
X98459500Y-95619077D01*
X98459500Y-100258655D01*
X98439815Y-100325694D01*
X98394519Y-100367709D01*
X98291376Y-100423528D01*
X98291365Y-100423535D01*
X98108222Y-100566081D01*
X98108219Y-100566084D01*
X97951016Y-100736852D01*
X97824075Y-100931151D01*
X97730842Y-101143699D01*
X97673866Y-101368691D01*
X97673864Y-101368702D01*
X97654700Y-101599993D01*
X97654700Y-101600006D01*
X97673864Y-101831297D01*
X97673866Y-101831308D01*
X97730842Y-102056300D01*
X97824075Y-102268848D01*
X97951016Y-102463147D01*
X97951019Y-102463151D01*
X97951021Y-102463153D01*
X98045803Y-102566114D01*
X98076724Y-102628767D01*
X98068864Y-102698193D01*
X98024716Y-102752348D01*
X97997906Y-102766277D01*
X97917669Y-102796203D01*
X97917664Y-102796206D01*
X97802455Y-102882452D01*
X97802452Y-102882455D01*
X97716206Y-102997664D01*
X97716202Y-102997671D01*
X97665908Y-103132517D01*
X97659501Y-103192116D01*
X97659501Y-103192123D01*
X97659500Y-103192135D01*
X97659500Y-105087870D01*
X97659501Y-105087876D01*
X97665908Y-105147483D01*
X97716202Y-105282328D01*
X97716206Y-105282335D01*
X97802452Y-105397544D01*
X97802455Y-105397547D01*
X97917664Y-105483793D01*
X97917671Y-105483797D01*
X97962618Y-105500560D01*
X98052517Y-105534091D01*
X98112127Y-105540500D01*
X98335500Y-105540499D01*
X98402539Y-105560183D01*
X98448294Y-105612987D01*
X98459500Y-105664499D01*
X98459500Y-113190754D01*
X98439815Y-113257793D01*
X98400778Y-113296181D01*
X98333436Y-113337877D01*
X98169020Y-113487761D01*
X98034943Y-113665308D01*
X98034938Y-113665316D01*
X97935775Y-113864461D01*
X97935769Y-113864476D01*
X97874885Y-114078462D01*
X97874884Y-114078464D01*
X97854357Y-114299999D01*
X97854357Y-114300000D01*
X97874884Y-114521535D01*
X97874885Y-114521537D01*
X97935769Y-114735523D01*
X97935775Y-114735538D01*
X98034938Y-114934683D01*
X98034943Y-114934691D01*
X98169020Y-115112238D01*
X98333437Y-115262123D01*
X98333439Y-115262125D01*
X98522595Y-115379245D01*
X98522596Y-115379245D01*
X98522599Y-115379247D01*
X98730060Y-115459618D01*
X98948757Y-115500500D01*
X98948759Y-115500500D01*
X99171241Y-115500500D01*
X99171243Y-115500500D01*
X99389940Y-115459618D01*
X99597401Y-115379247D01*
X99786562Y-115262124D01*
X99950981Y-115112236D01*
X100085058Y-114934689D01*
X100184229Y-114735528D01*
X100245115Y-114521536D01*
X100265643Y-114300000D01*
X100245115Y-114078464D01*
X100184229Y-113864472D01*
X100184224Y-113864461D01*
X100085061Y-113665316D01*
X100085056Y-113665308D01*
X99950979Y-113487761D01*
X99786562Y-113337876D01*
X99786560Y-113337874D01*
X99719222Y-113296181D01*
X99672586Y-113244154D01*
X99660500Y-113190758D01*
X99660500Y-105664498D01*
X99680185Y-105597460D01*
X99732989Y-105551705D01*
X99784500Y-105540499D01*
X100007871Y-105540499D01*
X100007872Y-105540499D01*
X100067483Y-105534091D01*
X100202331Y-105483796D01*
X100317546Y-105397546D01*
X100403796Y-105282331D01*
X100454091Y-105147483D01*
X100460500Y-105087873D01*
X100460499Y-103192128D01*
X100454091Y-103132517D01*
X100442525Y-103101508D01*
X100403797Y-102997671D01*
X100403793Y-102997664D01*
X100317547Y-102882455D01*
X100317544Y-102882452D01*
X100202335Y-102796206D01*
X100202328Y-102796202D01*
X100122094Y-102766277D01*
X100066160Y-102724406D01*
X100041743Y-102658941D01*
X100056595Y-102590668D01*
X100074190Y-102566121D01*
X100168979Y-102463153D01*
X100295924Y-102268849D01*
X100389157Y-102056300D01*
X100446134Y-101831305D01*
X100446135Y-101831297D01*
X100465300Y-101600006D01*
X100465300Y-101599993D01*
X100446135Y-101368702D01*
X100446133Y-101368691D01*
X100389157Y-101143699D01*
X100295924Y-100931151D01*
X100168983Y-100736852D01*
X100168980Y-100736849D01*
X100168979Y-100736847D01*
X100011784Y-100566087D01*
X100011779Y-100566083D01*
X100011777Y-100566081D01*
X99828634Y-100423535D01*
X99828619Y-100423525D01*
X99725481Y-100367709D01*
X99675890Y-100318490D01*
X99660500Y-100258658D01*
X99660500Y-95875744D01*
X99680185Y-95808706D01*
X99696819Y-95788064D01*
X101519178Y-93965706D01*
X101580501Y-93932221D01*
X101606859Y-93929387D01*
X104747685Y-93929387D01*
X104755783Y-93929917D01*
X104791113Y-93934569D01*
X104791114Y-93934569D01*
X104843366Y-93927689D01*
X104947875Y-93913931D01*
X105093954Y-93853423D01*
X105133292Y-93823238D01*
X105219395Y-93757169D01*
X105241096Y-93728886D01*
X105246424Y-93722809D01*
X107073922Y-91895311D01*
X107079999Y-91889983D01*
X107108282Y-91868282D01*
X107204536Y-91742841D01*
X107265044Y-91596762D01*
X107280500Y-91479361D01*
X107285682Y-91440000D01*
X107281028Y-91404652D01*
X107280500Y-91396587D01*
X107280499Y-90189090D01*
X107300185Y-90122050D01*
X107352101Y-90076706D01*
X107357830Y-90074035D01*
X107551401Y-89938495D01*
X107718495Y-89771401D01*
X107848424Y-89585842D01*
X107903002Y-89542217D01*
X107972500Y-89535023D01*
X108034855Y-89566546D01*
X108051575Y-89585842D01*
X108181500Y-89771395D01*
X108181505Y-89771401D01*
X108348599Y-89938495D01*
X108445384Y-90006264D01*
X108542165Y-90074032D01*
X108542170Y-90074035D01*
X108547900Y-90076706D01*
X108600340Y-90122876D01*
X108619499Y-90189090D01*
X108619499Y-91123876D01*
X108618968Y-91131975D01*
X108614318Y-91167305D01*
X108619500Y-91206665D01*
X108634955Y-91324065D01*
X108634956Y-91324067D01*
X108695464Y-91470146D01*
X108791718Y-91595587D01*
X108819995Y-91617285D01*
X108826085Y-91622625D01*
X109895528Y-92692068D01*
X110042495Y-92839035D01*
X110047846Y-92845136D01*
X110069544Y-92873413D01*
X110146029Y-92932102D01*
X110194983Y-92969666D01*
X110194984Y-92969666D01*
X110194985Y-92969667D01*
X110341064Y-93030175D01*
X110419445Y-93040494D01*
X110497825Y-93050813D01*
X110497826Y-93050813D01*
X110533155Y-93046161D01*
X110541254Y-93045631D01*
X112000592Y-93045631D01*
X112067631Y-93065316D01*
X112088273Y-93081950D01*
X113663181Y-94656857D01*
X113696666Y-94718180D01*
X113699500Y-94744538D01*
X113699500Y-100258655D01*
X113679815Y-100325694D01*
X113634519Y-100367709D01*
X113531376Y-100423528D01*
X113531365Y-100423535D01*
X113348222Y-100566081D01*
X113348219Y-100566084D01*
X113191016Y-100736852D01*
X113064075Y-100931151D01*
X112970842Y-101143699D01*
X112913866Y-101368691D01*
X112913864Y-101368702D01*
X112894700Y-101599993D01*
X112894700Y-101600006D01*
X112913864Y-101831297D01*
X112913866Y-101831308D01*
X112970842Y-102056300D01*
X113064075Y-102268848D01*
X113191016Y-102463147D01*
X113191019Y-102463151D01*
X113191021Y-102463153D01*
X113285803Y-102566114D01*
X113316724Y-102628767D01*
X113308864Y-102698193D01*
X113264716Y-102752348D01*
X113237906Y-102766277D01*
X113157669Y-102796203D01*
X113157664Y-102796206D01*
X113042455Y-102882452D01*
X113042452Y-102882455D01*
X112956206Y-102997664D01*
X112956202Y-102997671D01*
X112905908Y-103132517D01*
X112899501Y-103192116D01*
X112899501Y-103192123D01*
X112899500Y-103192135D01*
X112899500Y-105087870D01*
X112899501Y-105087876D01*
X112905908Y-105147483D01*
X112956202Y-105282328D01*
X112956206Y-105282335D01*
X113042452Y-105397544D01*
X113042455Y-105397547D01*
X113157664Y-105483793D01*
X113157671Y-105483797D01*
X113202618Y-105500560D01*
X113292517Y-105534091D01*
X113352127Y-105540500D01*
X113575500Y-105540499D01*
X113642539Y-105560183D01*
X113688294Y-105612987D01*
X113699500Y-105664499D01*
X113699500Y-113190754D01*
X113679815Y-113257793D01*
X113640778Y-113296181D01*
X113573436Y-113337877D01*
X113409020Y-113487761D01*
X113274943Y-113665308D01*
X113274938Y-113665316D01*
X113175775Y-113864461D01*
X113175769Y-113864476D01*
X113114885Y-114078462D01*
X113114884Y-114078464D01*
X113094357Y-114299999D01*
X113094357Y-114300000D01*
X113114884Y-114521535D01*
X113114885Y-114521537D01*
X113175769Y-114735523D01*
X113175775Y-114735538D01*
X113274938Y-114934683D01*
X113274943Y-114934691D01*
X113409020Y-115112238D01*
X113573437Y-115262123D01*
X113573439Y-115262125D01*
X113762595Y-115379245D01*
X113762596Y-115379245D01*
X113762599Y-115379247D01*
X113970060Y-115459618D01*
X114188757Y-115500500D01*
X114188759Y-115500500D01*
X114411241Y-115500500D01*
X114411243Y-115500500D01*
X114629940Y-115459618D01*
X114837401Y-115379247D01*
X115026562Y-115262124D01*
X115190981Y-115112236D01*
X115325058Y-114934689D01*
X115424229Y-114735528D01*
X115485115Y-114521536D01*
X115505643Y-114300000D01*
X115485115Y-114078464D01*
X115424229Y-113864472D01*
X115424224Y-113864461D01*
X115325061Y-113665316D01*
X115325056Y-113665308D01*
X115190979Y-113487761D01*
X115026563Y-113337877D01*
X115026562Y-113337876D01*
X114959221Y-113296180D01*
X114912587Y-113244153D01*
X114900500Y-113190754D01*
X114900500Y-105664499D01*
X114920185Y-105597460D01*
X114972989Y-105551705D01*
X115024500Y-105540499D01*
X115247871Y-105540499D01*
X115247872Y-105540499D01*
X115307483Y-105534091D01*
X115442331Y-105483796D01*
X115557546Y-105397546D01*
X115643796Y-105282331D01*
X115694091Y-105147483D01*
X115700500Y-105087873D01*
X115700499Y-103192128D01*
X115694091Y-103132517D01*
X115682525Y-103101508D01*
X115643797Y-102997671D01*
X115643793Y-102997664D01*
X115557547Y-102882455D01*
X115557544Y-102882452D01*
X115442335Y-102796206D01*
X115442328Y-102796202D01*
X115362094Y-102766277D01*
X115306160Y-102724406D01*
X115281743Y-102658941D01*
X115296595Y-102590668D01*
X115314190Y-102566121D01*
X115408979Y-102463153D01*
X115535924Y-102268849D01*
X115629157Y-102056300D01*
X115686134Y-101831305D01*
X115686135Y-101831297D01*
X115705300Y-101600006D01*
X115705300Y-101599993D01*
X115686135Y-101368702D01*
X115686133Y-101368691D01*
X115629157Y-101143699D01*
X115535924Y-100931151D01*
X115408983Y-100736852D01*
X115408980Y-100736849D01*
X115408979Y-100736847D01*
X115251784Y-100566087D01*
X115251779Y-100566083D01*
X115251777Y-100566081D01*
X115068634Y-100423535D01*
X115068619Y-100423525D01*
X114965481Y-100367709D01*
X114915890Y-100318490D01*
X114900500Y-100258658D01*
X114900500Y-94487870D01*
X114901031Y-94479768D01*
X114905682Y-94444441D01*
X114905682Y-94444440D01*
X114885044Y-94287681D01*
X114885042Y-94287676D01*
X114881902Y-94280096D01*
X114824536Y-94141601D01*
X114788493Y-94094629D01*
X114752451Y-94047658D01*
X114752450Y-94047657D01*
X114733859Y-94023428D01*
X114728281Y-94016158D01*
X114700009Y-93994465D01*
X114693912Y-93989119D01*
X112756017Y-92051224D01*
X112750663Y-92045119D01*
X112728975Y-92016853D01*
X112728972Y-92016851D01*
X112728971Y-92016849D01*
X112603530Y-91920595D01*
X112542525Y-91895326D01*
X112457451Y-91860087D01*
X112457449Y-91860086D01*
X112340050Y-91844631D01*
X112300689Y-91839449D01*
X112265359Y-91844100D01*
X112257261Y-91844631D01*
X110797923Y-91844631D01*
X110730884Y-91824946D01*
X110710242Y-91808312D01*
X109856819Y-90954888D01*
X109823334Y-90893565D01*
X109820500Y-90867207D01*
X109820500Y-90189090D01*
X109840185Y-90122051D01*
X109892101Y-90076706D01*
X109897830Y-90074035D01*
X110091401Y-89938495D01*
X110258495Y-89771401D01*
X110388424Y-89585842D01*
X110443002Y-89542217D01*
X110512500Y-89535023D01*
X110574855Y-89566546D01*
X110591575Y-89585842D01*
X110721500Y-89771395D01*
X110721505Y-89771401D01*
X110888599Y-89938495D01*
X110985384Y-90006264D01*
X111082165Y-90074032D01*
X111082167Y-90074033D01*
X111082170Y-90074035D01*
X111296337Y-90173903D01*
X111524592Y-90235063D01*
X111701034Y-90250500D01*
X111759999Y-90255659D01*
X111760000Y-90255659D01*
X111760001Y-90255659D01*
X111818966Y-90250500D01*
X111995408Y-90235063D01*
X112223663Y-90173903D01*
X112437830Y-90074035D01*
X112631401Y-89938495D01*
X112798495Y-89771401D01*
X112928424Y-89585842D01*
X112983002Y-89542217D01*
X113052500Y-89535023D01*
X113114855Y-89566546D01*
X113131575Y-89585842D01*
X113261500Y-89771395D01*
X113261505Y-89771401D01*
X113428599Y-89938495D01*
X113525384Y-90006264D01*
X113622165Y-90074032D01*
X113622167Y-90074033D01*
X113622170Y-90074035D01*
X113836337Y-90173903D01*
X114064592Y-90235063D01*
X114241034Y-90250500D01*
X114299999Y-90255659D01*
X114300000Y-90255659D01*
X114300001Y-90255659D01*
X114358966Y-90250500D01*
X114535408Y-90235063D01*
X114763663Y-90173903D01*
X114977830Y-90074035D01*
X115171401Y-89938495D01*
X115338495Y-89771401D01*
X115468424Y-89585842D01*
X115523002Y-89542217D01*
X115592500Y-89535023D01*
X115654855Y-89566546D01*
X115671575Y-89585842D01*
X115801500Y-89771395D01*
X115801505Y-89771401D01*
X115968599Y-89938495D01*
X116065384Y-90006264D01*
X116162165Y-90074032D01*
X116162167Y-90074033D01*
X116162170Y-90074035D01*
X116376337Y-90173903D01*
X116604592Y-90235063D01*
X116781034Y-90250500D01*
X116839999Y-90255659D01*
X116840000Y-90255659D01*
X116840001Y-90255659D01*
X116898966Y-90250500D01*
X117075408Y-90235063D01*
X117303663Y-90173903D01*
X117517830Y-90074035D01*
X117711401Y-89938495D01*
X117878495Y-89771401D01*
X118008424Y-89585842D01*
X118063002Y-89542217D01*
X118132500Y-89535023D01*
X118194855Y-89566546D01*
X118211575Y-89585842D01*
X118341500Y-89771395D01*
X118341505Y-89771401D01*
X118508599Y-89938495D01*
X118605384Y-90006264D01*
X118702165Y-90074032D01*
X118702167Y-90074033D01*
X118702170Y-90074035D01*
X118916337Y-90173903D01*
X119144592Y-90235063D01*
X119321034Y-90250500D01*
X119379999Y-90255659D01*
X119380000Y-90255659D01*
X119380001Y-90255659D01*
X119438966Y-90250500D01*
X119615408Y-90235063D01*
X119843663Y-90173903D01*
X120057830Y-90074035D01*
X120251401Y-89938495D01*
X120418495Y-89771401D01*
X120554035Y-89577830D01*
X120653903Y-89363663D01*
X120715063Y-89135408D01*
X120735659Y-88900000D01*
X120715063Y-88664592D01*
X120653903Y-88436337D01*
X120554035Y-88222171D01*
X120548425Y-88214158D01*
X120418494Y-88028597D01*
X120251402Y-87861506D01*
X120251395Y-87861501D01*
X120057834Y-87725967D01*
X120057830Y-87725965D01*
X120052085Y-87723286D01*
X119843663Y-87626097D01*
X119843659Y-87626096D01*
X119843655Y-87626094D01*
X119615413Y-87564938D01*
X119615403Y-87564936D01*
X119380001Y-87544341D01*
X119379999Y-87544341D01*
X119144596Y-87564936D01*
X119144586Y-87564938D01*
X118916344Y-87626094D01*
X118916335Y-87626098D01*
X118702171Y-87725964D01*
X118702169Y-87725965D01*
X118508597Y-87861505D01*
X118341506Y-88028596D01*
X118211575Y-88214159D01*
X118156998Y-88257784D01*
X118087500Y-88264978D01*
X118025145Y-88233455D01*
X118008425Y-88214159D01*
X117878494Y-88028597D01*
X117711402Y-87861506D01*
X117711395Y-87861501D01*
X117517834Y-87725967D01*
X117517830Y-87725965D01*
X117512085Y-87723286D01*
X117303663Y-87626097D01*
X117303659Y-87626096D01*
X117303655Y-87626094D01*
X117075413Y-87564938D01*
X117075403Y-87564936D01*
X116840001Y-87544341D01*
X116839999Y-87544341D01*
X116604596Y-87564936D01*
X116604586Y-87564938D01*
X116376344Y-87626094D01*
X116376335Y-87626098D01*
X116162171Y-87725964D01*
X116162169Y-87725965D01*
X115968597Y-87861505D01*
X115801506Y-88028596D01*
X115671575Y-88214159D01*
X115616998Y-88257784D01*
X115547500Y-88264978D01*
X115485145Y-88233455D01*
X115468425Y-88214159D01*
X115338494Y-88028597D01*
X115171402Y-87861506D01*
X115171395Y-87861501D01*
X114977834Y-87725967D01*
X114977830Y-87725965D01*
X114972085Y-87723286D01*
X114763663Y-87626097D01*
X114763659Y-87626096D01*
X114763655Y-87626094D01*
X114535413Y-87564938D01*
X114535403Y-87564936D01*
X114300001Y-87544341D01*
X114299999Y-87544341D01*
X114064596Y-87564936D01*
X114064586Y-87564938D01*
X113836344Y-87626094D01*
X113836335Y-87626098D01*
X113622171Y-87725964D01*
X113622169Y-87725965D01*
X113428597Y-87861505D01*
X113261506Y-88028596D01*
X113131575Y-88214159D01*
X113076998Y-88257784D01*
X113007500Y-88264978D01*
X112945145Y-88233455D01*
X112928425Y-88214159D01*
X112798494Y-88028597D01*
X112631402Y-87861506D01*
X112631395Y-87861501D01*
X112437831Y-87725965D01*
X112437826Y-87725962D01*
X112432091Y-87723288D01*
X112379653Y-87677113D01*
X112360500Y-87610908D01*
X112360500Y-87139210D01*
X112361031Y-87131108D01*
X112365682Y-87095781D01*
X112365682Y-87095780D01*
X112345044Y-86939021D01*
X112345044Y-86939020D01*
X112284536Y-86792941D01*
X112284535Y-86792940D01*
X112284535Y-86792939D01*
X112211463Y-86697709D01*
X112211448Y-86697691D01*
X112188281Y-86667499D01*
X112160013Y-86645808D01*
X112153917Y-86640463D01*
X110506763Y-84993310D01*
X110501422Y-84987219D01*
X110479725Y-84958943D01*
X110354284Y-84862689D01*
X110208205Y-84802181D01*
X110208203Y-84802180D01*
X110090804Y-84786725D01*
X110051443Y-84781543D01*
X110016113Y-84786194D01*
X110008015Y-84786725D01*
X74732301Y-84786725D01*
X74724202Y-84786194D01*
X74688873Y-84781543D01*
X74649512Y-84786725D01*
X74532112Y-84802180D01*
X74532110Y-84802181D01*
X74386030Y-84862689D01*
X74260592Y-84958941D01*
X74238892Y-84987219D01*
X74233541Y-84993321D01*
X68417449Y-90809414D01*
X68356126Y-90842899D01*
X68329768Y-90845733D01*
X64652316Y-90845733D01*
X64644217Y-90845202D01*
X64608888Y-90840551D01*
X64569527Y-90845733D01*
X64452127Y-90861188D01*
X64452125Y-90861189D01*
X64306048Y-90921696D01*
X64180602Y-91017954D01*
X64158912Y-91046223D01*
X64153559Y-91052327D01*
X60414334Y-94791551D01*
X60408232Y-94796902D01*
X60379956Y-94818600D01*
X60379955Y-94818601D01*
X60270608Y-94961104D01*
X60270849Y-94962484D01*
X60262201Y-94995948D01*
X60223195Y-95090117D01*
X60223193Y-95090122D01*
X60202556Y-95246881D01*
X60207206Y-95282215D01*
X60207737Y-95290314D01*
X60207737Y-103649723D01*
X60188052Y-103716762D01*
X60171418Y-103737404D01*
X57865642Y-106043181D01*
X57804319Y-106076666D01*
X57777961Y-106079500D01*
X54814499Y-106079500D01*
X54747460Y-106059815D01*
X54701705Y-106007011D01*
X54690499Y-105955500D01*
X54690499Y-105782129D01*
X54690498Y-105782123D01*
X54690497Y-105782116D01*
X54684091Y-105722517D01*
X54633796Y-105587669D01*
X54633795Y-105587668D01*
X54633793Y-105587664D01*
X54547547Y-105472455D01*
X54547544Y-105472452D01*
X54432335Y-105386206D01*
X54432328Y-105386202D01*
X54300917Y-105337189D01*
X54244983Y-105295318D01*
X54220566Y-105229853D01*
X54235418Y-105161580D01*
X54256563Y-105133332D01*
X54378495Y-105011401D01*
X54514035Y-104817830D01*
X54516707Y-104812097D01*
X54562878Y-104759658D01*
X54629091Y-104740500D01*
X56793598Y-104740500D01*
X56801696Y-104741030D01*
X56837026Y-104745682D01*
X56837027Y-104745682D01*
X56889280Y-104738802D01*
X56993788Y-104725044D01*
X57139867Y-104664536D01*
X57219198Y-104603663D01*
X57265308Y-104568282D01*
X57287009Y-104539999D01*
X57292337Y-104533922D01*
X58813922Y-103012337D01*
X58819999Y-103007009D01*
X58848282Y-102985308D01*
X58944536Y-102859867D01*
X59005044Y-102713788D01*
X59020500Y-102596387D01*
X59025682Y-102557026D01*
X59021030Y-102521695D01*
X59020500Y-102513597D01*
X59020500Y-94280096D01*
X59040185Y-94213057D01*
X59056814Y-94192420D01*
X63712416Y-89536819D01*
X63773739Y-89503334D01*
X63800097Y-89500500D01*
X68536572Y-89500500D01*
X68544670Y-89501030D01*
X68580000Y-89505682D01*
X68580001Y-89505682D01*
X68632254Y-89498802D01*
X68736762Y-89485044D01*
X68882841Y-89424536D01*
X68962172Y-89363663D01*
X69008282Y-89328282D01*
X69029984Y-89299998D01*
X69035310Y-89293923D01*
X71513916Y-86815318D01*
X71520006Y-86809977D01*
X71548282Y-86788282D01*
X71569984Y-86759998D01*
X71575310Y-86753923D01*
X74053916Y-84275318D01*
X74060006Y-84269977D01*
X74088282Y-84248282D01*
X74184536Y-84122841D01*
X74245044Y-83976762D01*
X74260500Y-83859361D01*
X74265682Y-83820000D01*
X74261028Y-83784652D01*
X74260500Y-83776587D01*
X74260500Y-82569090D01*
X74280185Y-82502050D01*
X74332101Y-82456706D01*
X74337830Y-82454035D01*
X74531401Y-82318495D01*
X74698495Y-82151401D01*
X74834035Y-81957830D01*
X74933903Y-81743663D01*
X74995063Y-81515408D01*
X75015659Y-81280000D01*
X74995063Y-81044592D01*
X74933903Y-80816337D01*
X74834035Y-80602171D01*
X74828731Y-80594595D01*
X74698494Y-80408597D01*
X74531402Y-80241506D01*
X74531395Y-80241501D01*
X74337834Y-80105967D01*
X74337830Y-80105965D01*
X74332085Y-80103286D01*
X74123663Y-80006097D01*
X74123659Y-80006096D01*
X74123655Y-80006094D01*
X73895413Y-79944938D01*
X73895403Y-79944936D01*
X73660001Y-79924341D01*
X73659999Y-79924341D01*
X73424596Y-79944936D01*
X73424586Y-79944938D01*
X73196344Y-80006094D01*
X73196335Y-80006098D01*
X72982171Y-80105964D01*
X72982169Y-80105965D01*
X72788597Y-80241505D01*
X72621508Y-80408594D01*
X72491269Y-80594595D01*
X72436692Y-80638219D01*
X72367193Y-80645412D01*
X72304839Y-80613890D01*
X72288119Y-80594594D01*
X72158113Y-80408926D01*
X72158108Y-80408920D01*
X71991082Y-80241894D01*
X71797578Y-80106399D01*
X71583492Y-80006570D01*
X71583486Y-80006567D01*
X71370000Y-79949364D01*
X71370000Y-80844498D01*
X71262315Y-80795320D01*
X71155763Y-80780000D01*
X71084237Y-80780000D01*
X70977685Y-80795320D01*
X70870000Y-80844498D01*
X70870000Y-79949364D01*
X70869999Y-79949364D01*
X70656513Y-80006567D01*
X70656507Y-80006570D01*
X70442422Y-80106399D01*
X70442420Y-80106400D01*
X70248926Y-80241886D01*
X70248920Y-80241891D01*
X70081891Y-80408920D01*
X70081890Y-80408922D01*
X69951880Y-80594595D01*
X69897303Y-80638219D01*
X69827804Y-80645412D01*
X69765450Y-80613890D01*
X69748730Y-80594594D01*
X69618494Y-80408597D01*
X69451402Y-80241506D01*
X69451395Y-80241501D01*
X69257831Y-80105965D01*
X69257826Y-80105962D01*
X69252091Y-80103288D01*
X69199653Y-80057113D01*
X69180500Y-79990908D01*
X69180500Y-79040097D01*
X69200185Y-78973058D01*
X69216819Y-78952416D01*
X69782577Y-78386658D01*
X71513923Y-76655311D01*
X71520010Y-76649975D01*
X71548282Y-76628282D01*
X71572451Y-76596785D01*
X71578558Y-76588827D01*
X71644535Y-76502842D01*
X71644534Y-76502842D01*
X71644536Y-76502841D01*
X71705044Y-76356762D01*
X71725682Y-76200000D01*
X71721028Y-76164652D01*
X71720500Y-76156587D01*
X71720500Y-74949089D01*
X71740185Y-74882050D01*
X71792101Y-74836706D01*
X71797830Y-74834035D01*
X71991401Y-74698495D01*
X72158495Y-74531401D01*
X72288424Y-74345842D01*
X72343002Y-74302217D01*
X72412500Y-74295023D01*
X72474855Y-74326546D01*
X72491575Y-74345842D01*
X72621500Y-74531395D01*
X72621505Y-74531401D01*
X72788599Y-74698495D01*
X72885384Y-74766264D01*
X72982165Y-74834032D01*
X72982167Y-74834033D01*
X72982170Y-74834035D01*
X72987898Y-74836706D01*
X73040339Y-74882872D01*
X73059500Y-74949090D01*
X73059500Y-76198002D01*
X73058969Y-76206100D01*
X73054318Y-76241431D01*
X73062621Y-76304502D01*
X73074956Y-76398193D01*
X73135464Y-76544272D01*
X73231718Y-76669713D01*
X73259995Y-76691411D01*
X73266085Y-76696751D01*
X74263845Y-77694511D01*
X75242793Y-78673459D01*
X75248146Y-78679562D01*
X75262149Y-78697812D01*
X75269842Y-78707837D01*
X75330821Y-78754627D01*
X75360752Y-78777594D01*
X75360753Y-78777596D01*
X75376859Y-78789954D01*
X75395283Y-78804091D01*
X75395285Y-78804091D01*
X75395287Y-78804093D01*
X75445023Y-78824694D01*
X75541362Y-78864599D01*
X75596044Y-78871798D01*
X75698123Y-78885237D01*
X75698124Y-78885237D01*
X75733453Y-78880585D01*
X75741552Y-78880055D01*
X85565511Y-78880055D01*
X85632550Y-78899740D01*
X85653192Y-78916374D01*
X85723181Y-78986363D01*
X85756666Y-79047686D01*
X85759500Y-79074044D01*
X85759500Y-79990908D01*
X85739815Y-80057947D01*
X85687914Y-80103286D01*
X85682173Y-80105963D01*
X85682169Y-80105965D01*
X85488600Y-80241503D01*
X85366673Y-80363430D01*
X85305350Y-80396914D01*
X85235658Y-80391930D01*
X85179725Y-80350058D01*
X85162810Y-80319081D01*
X85113797Y-80187671D01*
X85113793Y-80187664D01*
X85027547Y-80072455D01*
X85027544Y-80072452D01*
X84912335Y-79986206D01*
X84912328Y-79986202D01*
X84777482Y-79935908D01*
X84777483Y-79935908D01*
X84717883Y-79929501D01*
X84717881Y-79929500D01*
X84717873Y-79929500D01*
X84717864Y-79929500D01*
X82922129Y-79929500D01*
X82922123Y-79929501D01*
X82862516Y-79935908D01*
X82727671Y-79986202D01*
X82727664Y-79986206D01*
X82612455Y-80072452D01*
X82612452Y-80072455D01*
X82526206Y-80187664D01*
X82526202Y-80187671D01*
X82475908Y-80322517D01*
X82469501Y-80382116D01*
X82469500Y-80382135D01*
X82469500Y-82177870D01*
X82469501Y-82177876D01*
X82475908Y-82237483D01*
X82526202Y-82372328D01*
X82526206Y-82372335D01*
X82612452Y-82487544D01*
X82612455Y-82487547D01*
X82727664Y-82573793D01*
X82727671Y-82573797D01*
X82862517Y-82624091D01*
X82862516Y-82624091D01*
X82869444Y-82624835D01*
X82922127Y-82630500D01*
X84717872Y-82630499D01*
X84777483Y-82624091D01*
X84912331Y-82573796D01*
X85027546Y-82487546D01*
X85113796Y-82372331D01*
X85162810Y-82240916D01*
X85204681Y-82184984D01*
X85270145Y-82160566D01*
X85338418Y-82175417D01*
X85366673Y-82196569D01*
X85488599Y-82318495D01*
X85585384Y-82386265D01*
X85682165Y-82454032D01*
X85682167Y-82454033D01*
X85682170Y-82454035D01*
X85896337Y-82553903D01*
X86124592Y-82615063D01*
X86301034Y-82630500D01*
X86359999Y-82635659D01*
X86360000Y-82635659D01*
X86360001Y-82635659D01*
X86418966Y-82630500D01*
X86595408Y-82615063D01*
X86823663Y-82553903D01*
X87037830Y-82454035D01*
X87231401Y-82318495D01*
X87398495Y-82151401D01*
X87528426Y-81965840D01*
X87583001Y-81922217D01*
X87652499Y-81915023D01*
X87714854Y-81946546D01*
X87731574Y-81965841D01*
X87861505Y-82151401D01*
X88028599Y-82318495D01*
X88125384Y-82386264D01*
X88222165Y-82454032D01*
X88222167Y-82454033D01*
X88222170Y-82454035D01*
X88436337Y-82553903D01*
X88664592Y-82615063D01*
X88841034Y-82630500D01*
X88899999Y-82635659D01*
X88900000Y-82635659D01*
X88900001Y-82635659D01*
X88958966Y-82630500D01*
X89135408Y-82615063D01*
X89363663Y-82553903D01*
X89577830Y-82454035D01*
X89771401Y-82318495D01*
X89938495Y-82151401D01*
X90068426Y-81965841D01*
X90123002Y-81922217D01*
X90192500Y-81915023D01*
X90254855Y-81946546D01*
X90271575Y-81965842D01*
X90401500Y-82151395D01*
X90401505Y-82151401D01*
X90568599Y-82318495D01*
X90665384Y-82386264D01*
X90762165Y-82454032D01*
X90762167Y-82454033D01*
X90762170Y-82454035D01*
X90976337Y-82553903D01*
X91204592Y-82615063D01*
X91381034Y-82630500D01*
X91439999Y-82635659D01*
X91440000Y-82635659D01*
X91440001Y-82635659D01*
X91498966Y-82630500D01*
X91675408Y-82615063D01*
X91903663Y-82553903D01*
X92117830Y-82454035D01*
X92311401Y-82318495D01*
X92478495Y-82151401D01*
X92608426Y-81965840D01*
X92663001Y-81922217D01*
X92732499Y-81915023D01*
X92794854Y-81946546D01*
X92811574Y-81965841D01*
X92941505Y-82151401D01*
X93108599Y-82318495D01*
X93205384Y-82386264D01*
X93302165Y-82454032D01*
X93302167Y-82454033D01*
X93302170Y-82454035D01*
X93516337Y-82553903D01*
X93744592Y-82615063D01*
X93921034Y-82630500D01*
X93979999Y-82635659D01*
X93980000Y-82635659D01*
X93980001Y-82635659D01*
X94038966Y-82630500D01*
X94215408Y-82615063D01*
X94443663Y-82553903D01*
X94657830Y-82454035D01*
X94851401Y-82318495D01*
X95018495Y-82151401D01*
X95148426Y-81965841D01*
X95203002Y-81922217D01*
X95272500Y-81915023D01*
X95334855Y-81946546D01*
X95351575Y-81965842D01*
X95481500Y-82151395D01*
X95481505Y-82151401D01*
X95648599Y-82318495D01*
X95745384Y-82386264D01*
X95842165Y-82454032D01*
X95842167Y-82454033D01*
X95842170Y-82454035D01*
X96056337Y-82553903D01*
X96284592Y-82615063D01*
X96461034Y-82630500D01*
X96519999Y-82635659D01*
X96520000Y-82635659D01*
X96520001Y-82635659D01*
X96578966Y-82630500D01*
X96755408Y-82615063D01*
X96983663Y-82553903D01*
X97197830Y-82454035D01*
X97391401Y-82318495D01*
X97558495Y-82151401D01*
X97688426Y-81965840D01*
X97743001Y-81922217D01*
X97812499Y-81915023D01*
X97874854Y-81946546D01*
X97891574Y-81965841D01*
X98021505Y-82151401D01*
X98188599Y-82318495D01*
X98285384Y-82386264D01*
X98382165Y-82454032D01*
X98382167Y-82454033D01*
X98382170Y-82454035D01*
X98596337Y-82553903D01*
X98824592Y-82615063D01*
X99001034Y-82630500D01*
X99059999Y-82635659D01*
X99060000Y-82635659D01*
X99060001Y-82635659D01*
X99118966Y-82630500D01*
X99295408Y-82615063D01*
X99523663Y-82553903D01*
X99737830Y-82454035D01*
X99931401Y-82318495D01*
X100098495Y-82151401D01*
X100234035Y-81957830D01*
X100333903Y-81743663D01*
X100395063Y-81515408D01*
X100415659Y-81280000D01*
X100395063Y-81044592D01*
X100333903Y-80816337D01*
X100234035Y-80602171D01*
X100228731Y-80594595D01*
X100098494Y-80408597D01*
X99931402Y-80241506D01*
X99931395Y-80241501D01*
X99737831Y-80105965D01*
X99737826Y-80105962D01*
X99732091Y-80103288D01*
X99679653Y-80057113D01*
X99660500Y-79990908D01*
X99660500Y-78263184D01*
X99661031Y-78255082D01*
X99665682Y-78219755D01*
X99665682Y-78219754D01*
X99645044Y-78062995D01*
X99645044Y-78062994D01*
X99584536Y-77916915D01*
X99584535Y-77916914D01*
X99584535Y-77916913D01*
X99511463Y-77821683D01*
X99511448Y-77821665D01*
X99504938Y-77813181D01*
X99488282Y-77791474D01*
X99488281Y-77791473D01*
X99460013Y-77769782D01*
X99453917Y-77764437D01*
X97156819Y-75467339D01*
X97123334Y-75406016D01*
X97120500Y-75379658D01*
X97120500Y-75134499D01*
X97140185Y-75067460D01*
X97192989Y-75021705D01*
X97244500Y-75010499D01*
X97417871Y-75010499D01*
X97417872Y-75010499D01*
X97477483Y-75004091D01*
X97612331Y-74953796D01*
X97727546Y-74867546D01*
X97813796Y-74752331D01*
X97864091Y-74617483D01*
X97870500Y-74557873D01*
X97870499Y-72762128D01*
X97864091Y-72702517D01*
X97862810Y-72699083D01*
X97813797Y-72567671D01*
X97813793Y-72567664D01*
X97727547Y-72452455D01*
X97727544Y-72452452D01*
X97612335Y-72366206D01*
X97612328Y-72366202D01*
X97477482Y-72315908D01*
X97477483Y-72315908D01*
X97417883Y-72309501D01*
X97417881Y-72309500D01*
X97417873Y-72309500D01*
X97417864Y-72309500D01*
X95622129Y-72309500D01*
X95622123Y-72309501D01*
X95562516Y-72315908D01*
X95427671Y-72366202D01*
X95427664Y-72366206D01*
X95312455Y-72452452D01*
X95312452Y-72452455D01*
X95226206Y-72567664D01*
X95226203Y-72567669D01*
X95177189Y-72699083D01*
X95135317Y-72755016D01*
X95069853Y-72779433D01*
X95001580Y-72764581D01*
X94973326Y-72743430D01*
X94851402Y-72621506D01*
X94851395Y-72621501D01*
X94657834Y-72485967D01*
X94657830Y-72485965D01*
X94652081Y-72483284D01*
X94443663Y-72386097D01*
X94443659Y-72386096D01*
X94443655Y-72386094D01*
X94215413Y-72324938D01*
X94215403Y-72324936D01*
X93980001Y-72304341D01*
X93979999Y-72304341D01*
X93744596Y-72324936D01*
X93744586Y-72324938D01*
X93516344Y-72386094D01*
X93516335Y-72386098D01*
X93302171Y-72485964D01*
X93302169Y-72485965D01*
X93108597Y-72621505D01*
X92941505Y-72788597D01*
X92811575Y-72974158D01*
X92756998Y-73017783D01*
X92687500Y-73024977D01*
X92625145Y-72993454D01*
X92608425Y-72974158D01*
X92478494Y-72788597D01*
X92311402Y-72621506D01*
X92311395Y-72621501D01*
X92117834Y-72485967D01*
X92117830Y-72485965D01*
X92112081Y-72483284D01*
X91903663Y-72386097D01*
X91903659Y-72386096D01*
X91903655Y-72386094D01*
X91675413Y-72324938D01*
X91675403Y-72324936D01*
X91440001Y-72304341D01*
X91439999Y-72304341D01*
X91204596Y-72324936D01*
X91204586Y-72324938D01*
X90976344Y-72386094D01*
X90976335Y-72386098D01*
X90762171Y-72485964D01*
X90762169Y-72485965D01*
X90568597Y-72621505D01*
X90401508Y-72788594D01*
X90271574Y-72974159D01*
X90216997Y-73017784D01*
X90147498Y-73024976D01*
X90085144Y-72993454D01*
X90068424Y-72974158D01*
X89938494Y-72788597D01*
X89771402Y-72621506D01*
X89771395Y-72621501D01*
X89577834Y-72485967D01*
X89577830Y-72485965D01*
X89572081Y-72483284D01*
X89363663Y-72386097D01*
X89363659Y-72386096D01*
X89363655Y-72386094D01*
X89135413Y-72324938D01*
X89135403Y-72324936D01*
X88900001Y-72304341D01*
X88899999Y-72304341D01*
X88664596Y-72324936D01*
X88664586Y-72324938D01*
X88436344Y-72386094D01*
X88436335Y-72386098D01*
X88222171Y-72485964D01*
X88222169Y-72485965D01*
X88028597Y-72621505D01*
X87861505Y-72788597D01*
X87731575Y-72974158D01*
X87676998Y-73017783D01*
X87607500Y-73024977D01*
X87545145Y-72993454D01*
X87528425Y-72974158D01*
X87398494Y-72788597D01*
X87231402Y-72621506D01*
X87231395Y-72621501D01*
X87037831Y-72485965D01*
X87037826Y-72485962D01*
X87032091Y-72483288D01*
X86979653Y-72437113D01*
X86960500Y-72370908D01*
X86960500Y-71420096D01*
X86980185Y-71353057D01*
X86996814Y-71332420D01*
X87398860Y-70930374D01*
X87460183Y-70896890D01*
X87486541Y-70894056D01*
X100881520Y-70894056D01*
X100948559Y-70913741D01*
X100969201Y-70930375D01*
X103503180Y-73464353D01*
X103536665Y-73525676D01*
X103539499Y-73552034D01*
X103539499Y-76156567D01*
X103538968Y-76164666D01*
X103534318Y-76200000D01*
X103534318Y-76200001D01*
X103541426Y-76253989D01*
X103554955Y-76356760D01*
X103554956Y-76356762D01*
X103598853Y-76462740D01*
X103615464Y-76502841D01*
X103711718Y-76628282D01*
X103739995Y-76649980D01*
X103746085Y-76655320D01*
X104845784Y-77755019D01*
X105934669Y-78843904D01*
X105940022Y-78850007D01*
X105959839Y-78875834D01*
X105961718Y-78878282D01*
X105968992Y-78883863D01*
X106049001Y-78945256D01*
X106049002Y-78945258D01*
X106077395Y-78967044D01*
X106087159Y-78974536D01*
X106087161Y-78974536D01*
X106087163Y-78974538D01*
X106121438Y-78988735D01*
X106233238Y-79035044D01*
X106369359Y-79052965D01*
X106389999Y-79055683D01*
X106390000Y-79055683D01*
X106425334Y-79051030D01*
X106433434Y-79050500D01*
X111423884Y-79050500D01*
X111490923Y-79070185D01*
X111536678Y-79122989D01*
X111537440Y-79124689D01*
X111555827Y-79166608D01*
X111691833Y-79374782D01*
X111691836Y-79374785D01*
X111860256Y-79557738D01*
X112056491Y-79710474D01*
X112275190Y-79828828D01*
X112510386Y-79909571D01*
X112755665Y-79950500D01*
X113004335Y-79950500D01*
X113249614Y-79909571D01*
X113484810Y-79828828D01*
X113703509Y-79710474D01*
X113899744Y-79557738D01*
X114068164Y-79374785D01*
X114204173Y-79166607D01*
X114222559Y-79124689D01*
X114267517Y-79071204D01*
X114334253Y-79050514D01*
X114336116Y-79050500D01*
X117923884Y-79050500D01*
X117990923Y-79070185D01*
X118036678Y-79122989D01*
X118037440Y-79124689D01*
X118055827Y-79166608D01*
X118191833Y-79374782D01*
X118191836Y-79374785D01*
X118360256Y-79557738D01*
X118556491Y-79710474D01*
X118775190Y-79828828D01*
X119010386Y-79909571D01*
X119255665Y-79950500D01*
X119504335Y-79950500D01*
X119749614Y-79909571D01*
X119984810Y-79828828D01*
X120203509Y-79710474D01*
X120399744Y-79557738D01*
X120568164Y-79374785D01*
X120704173Y-79166607D01*
X120804063Y-78938881D01*
X120865108Y-78697821D01*
X120865109Y-78697812D01*
X120885643Y-78450005D01*
X120885643Y-78449994D01*
X120865109Y-78202187D01*
X120865107Y-78202175D01*
X120804063Y-77961118D01*
X120704173Y-77733393D01*
X120568166Y-77525217D01*
X120526272Y-77479708D01*
X120399744Y-77342262D01*
X120203509Y-77189526D01*
X120203507Y-77189525D01*
X120203506Y-77189524D01*
X119984811Y-77071172D01*
X119984802Y-77071169D01*
X119749616Y-76990429D01*
X119504335Y-76949500D01*
X119255665Y-76949500D01*
X119010383Y-76990429D01*
X118775197Y-77071169D01*
X118775188Y-77071172D01*
X118556493Y-77189524D01*
X118360257Y-77342261D01*
X118191833Y-77525217D01*
X118055827Y-77733391D01*
X118037440Y-77775311D01*
X117992483Y-77828796D01*
X117925747Y-77849486D01*
X117923884Y-77849500D01*
X114336116Y-77849500D01*
X114269077Y-77829815D01*
X114223322Y-77777011D01*
X114222560Y-77775311D01*
X114204172Y-77733391D01*
X114068166Y-77525217D01*
X114026272Y-77479708D01*
X113899744Y-77342262D01*
X113703509Y-77189526D01*
X113703507Y-77189525D01*
X113703506Y-77189524D01*
X113484811Y-77071172D01*
X113484802Y-77071169D01*
X113249616Y-76990429D01*
X113004335Y-76949500D01*
X112755665Y-76949500D01*
X112510383Y-76990429D01*
X112275197Y-77071169D01*
X112275188Y-77071172D01*
X112056493Y-77189524D01*
X111860257Y-77342261D01*
X111691833Y-77525217D01*
X111555827Y-77733391D01*
X111537440Y-77775311D01*
X111492483Y-77828796D01*
X111425747Y-77849486D01*
X111423884Y-77849500D01*
X106690097Y-77849500D01*
X106623058Y-77829815D01*
X106602416Y-77813181D01*
X104776819Y-75987584D01*
X104743334Y-75926261D01*
X104740500Y-75899903D01*
X104740500Y-73950005D01*
X111374858Y-73950005D01*
X111395385Y-74197729D01*
X111395387Y-74197738D01*
X111456412Y-74438717D01*
X111556266Y-74666364D01*
X111656564Y-74819882D01*
X112354070Y-74122376D01*
X112356884Y-74135915D01*
X112426442Y-74270156D01*
X112529638Y-74380652D01*
X112658819Y-74459209D01*
X112710002Y-74473549D01*
X112009942Y-75173609D01*
X112056768Y-75210055D01*
X112056770Y-75210056D01*
X112275385Y-75328364D01*
X112275396Y-75328369D01*
X112510506Y-75409083D01*
X112755707Y-75450000D01*
X113004293Y-75450000D01*
X113249493Y-75409083D01*
X113484603Y-75328369D01*
X113484614Y-75328364D01*
X113703228Y-75210057D01*
X113703231Y-75210055D01*
X113750056Y-75173609D01*
X113051568Y-74475121D01*
X113168458Y-74424349D01*
X113285739Y-74328934D01*
X113372928Y-74205415D01*
X113403354Y-74119802D01*
X114103434Y-74819882D01*
X114203731Y-74666369D01*
X114303587Y-74438717D01*
X114364612Y-74197738D01*
X114364614Y-74197729D01*
X114385141Y-73950005D01*
X117874858Y-73950005D01*
X117895385Y-74197729D01*
X117895387Y-74197738D01*
X117956412Y-74438717D01*
X118056266Y-74666364D01*
X118156564Y-74819882D01*
X118854070Y-74122375D01*
X118856884Y-74135915D01*
X118926442Y-74270156D01*
X119029638Y-74380652D01*
X119158819Y-74459209D01*
X119210002Y-74473549D01*
X118509942Y-75173609D01*
X118556768Y-75210055D01*
X118556770Y-75210056D01*
X118775385Y-75328364D01*
X118775396Y-75328369D01*
X119010506Y-75409083D01*
X119255707Y-75450000D01*
X119504293Y-75450000D01*
X119749493Y-75409083D01*
X119984603Y-75328369D01*
X119984614Y-75328364D01*
X120203228Y-75210057D01*
X120203231Y-75210055D01*
X120250056Y-75173609D01*
X119551568Y-74475121D01*
X119668458Y-74424349D01*
X119785739Y-74328934D01*
X119872928Y-74205415D01*
X119903354Y-74119802D01*
X120603434Y-74819882D01*
X120703731Y-74666369D01*
X120803587Y-74438717D01*
X120864612Y-74197738D01*
X120864614Y-74197729D01*
X120885141Y-73950005D01*
X120885141Y-73949994D01*
X120864614Y-73702270D01*
X120864612Y-73702261D01*
X120803587Y-73461282D01*
X120703731Y-73233630D01*
X120603434Y-73080116D01*
X119905928Y-73777621D01*
X119903116Y-73764085D01*
X119833558Y-73629844D01*
X119730362Y-73519348D01*
X119601181Y-73440791D01*
X119549997Y-73426450D01*
X120250057Y-72726390D01*
X120250056Y-72726389D01*
X120203229Y-72689943D01*
X119984614Y-72571635D01*
X119984603Y-72571630D01*
X119749493Y-72490916D01*
X119504293Y-72450000D01*
X119255707Y-72450000D01*
X119010506Y-72490916D01*
X118775396Y-72571630D01*
X118775390Y-72571632D01*
X118556761Y-72689949D01*
X118509942Y-72726388D01*
X118509942Y-72726390D01*
X119208431Y-73424878D01*
X119091542Y-73475651D01*
X118974261Y-73571066D01*
X118887072Y-73694585D01*
X118856645Y-73780197D01*
X118156564Y-73080116D01*
X118056267Y-73233632D01*
X117956412Y-73461282D01*
X117895387Y-73702261D01*
X117895385Y-73702270D01*
X117874858Y-73949994D01*
X117874858Y-73950005D01*
X114385141Y-73950005D01*
X114385141Y-73949994D01*
X114364614Y-73702270D01*
X114364612Y-73702261D01*
X114303587Y-73461282D01*
X114203731Y-73233630D01*
X114103434Y-73080116D01*
X113405928Y-73777621D01*
X113403116Y-73764085D01*
X113333558Y-73629844D01*
X113230362Y-73519348D01*
X113101181Y-73440791D01*
X113049995Y-73426449D01*
X113750056Y-72726389D01*
X113703229Y-72689943D01*
X113484614Y-72571635D01*
X113484603Y-72571630D01*
X113249493Y-72490916D01*
X113004293Y-72450000D01*
X112755707Y-72450000D01*
X112510506Y-72490916D01*
X112275396Y-72571630D01*
X112275390Y-72571632D01*
X112056761Y-72689949D01*
X112009942Y-72726388D01*
X112009942Y-72726390D01*
X112708431Y-73424878D01*
X112591542Y-73475651D01*
X112474261Y-73571066D01*
X112387072Y-73694585D01*
X112356645Y-73780196D01*
X111656563Y-73080116D01*
X111556267Y-73233632D01*
X111456412Y-73461282D01*
X111395387Y-73702261D01*
X111395385Y-73702270D01*
X111374858Y-73949994D01*
X111374858Y-73950005D01*
X104740500Y-73950005D01*
X104740500Y-73295367D01*
X104741031Y-73287265D01*
X104745682Y-73251938D01*
X104745682Y-73251937D01*
X104725044Y-73095178D01*
X104725042Y-73095173D01*
X104718805Y-73080116D01*
X104678235Y-72982171D01*
X104664538Y-72949102D01*
X104664535Y-72949097D01*
X104592451Y-72855155D01*
X104592450Y-72855154D01*
X104578761Y-72837314D01*
X104568281Y-72823655D01*
X104540009Y-72801962D01*
X104533912Y-72796616D01*
X101636937Y-69899641D01*
X101631596Y-69893550D01*
X101609899Y-69865274D01*
X101484458Y-69769020D01*
X101338379Y-69708512D01*
X101338377Y-69708511D01*
X101220978Y-69693056D01*
X101181617Y-69687874D01*
X101146287Y-69692525D01*
X101138189Y-69693056D01*
X87229872Y-69693056D01*
X87221773Y-69692525D01*
X87186444Y-69687874D01*
X87147083Y-69693056D01*
X87029683Y-69708511D01*
X87029681Y-69708512D01*
X86883601Y-69769020D01*
X86758163Y-69865272D01*
X86736463Y-69893550D01*
X86731112Y-69899652D01*
X85966096Y-70664668D01*
X85959993Y-70670020D01*
X85931718Y-70691717D01*
X85907549Y-70723213D01*
X85907550Y-70723214D01*
X85835464Y-70817158D01*
X85835461Y-70817163D01*
X85774957Y-70963234D01*
X85774955Y-70963239D01*
X85754318Y-71119998D01*
X85758968Y-71155332D01*
X85759499Y-71163431D01*
X85759499Y-72370908D01*
X85739814Y-72437947D01*
X85687917Y-72483284D01*
X85682176Y-72485961D01*
X85682169Y-72485965D01*
X85488597Y-72621505D01*
X85321508Y-72788594D01*
X85191574Y-72974159D01*
X85136997Y-73017784D01*
X85067498Y-73024976D01*
X85005144Y-72993454D01*
X84988424Y-72974158D01*
X84858494Y-72788597D01*
X84691402Y-72621506D01*
X84691395Y-72621501D01*
X84497831Y-72485965D01*
X84497826Y-72485962D01*
X84492091Y-72483288D01*
X84439653Y-72437113D01*
X84420500Y-72370908D01*
X84420500Y-71332415D01*
X84420500Y-70222573D01*
X84440184Y-70155538D01*
X84456813Y-70134901D01*
X85954896Y-68636819D01*
X86016220Y-68603334D01*
X86042578Y-68600500D01*
X111423884Y-68600500D01*
X111490923Y-68620185D01*
X111536678Y-68672989D01*
X111537440Y-68674689D01*
X111555827Y-68716608D01*
X111691833Y-68924782D01*
X111691836Y-68924785D01*
X111860256Y-69107738D01*
X112056491Y-69260474D01*
X112275190Y-69378828D01*
X112510386Y-69459571D01*
X112755665Y-69500500D01*
X113004335Y-69500500D01*
X113249614Y-69459571D01*
X113484810Y-69378828D01*
X113703509Y-69260474D01*
X113899744Y-69107738D01*
X114068164Y-68924785D01*
X114204173Y-68716607D01*
X114222559Y-68674689D01*
X114267517Y-68621204D01*
X114334253Y-68600514D01*
X114336116Y-68600500D01*
X117923884Y-68600500D01*
X117990923Y-68620185D01*
X118036678Y-68672989D01*
X118037440Y-68674689D01*
X118055827Y-68716608D01*
X118191833Y-68924782D01*
X118191836Y-68924785D01*
X118360256Y-69107738D01*
X118556491Y-69260474D01*
X118775190Y-69378828D01*
X119010386Y-69459571D01*
X119255665Y-69500500D01*
X119504335Y-69500500D01*
X119749614Y-69459571D01*
X119984810Y-69378828D01*
X120203509Y-69260474D01*
X120399744Y-69107738D01*
X120568164Y-68924785D01*
X120704173Y-68716607D01*
X120804063Y-68488881D01*
X120865108Y-68247821D01*
X120885643Y-68000000D01*
X120865108Y-67752179D01*
X120819409Y-67571718D01*
X120804063Y-67511118D01*
X120704173Y-67283393D01*
X120568166Y-67075217D01*
X120546557Y-67051744D01*
X120399744Y-66892262D01*
X120203509Y-66739526D01*
X120203507Y-66739525D01*
X120203506Y-66739524D01*
X119984811Y-66621172D01*
X119984802Y-66621169D01*
X119749616Y-66540429D01*
X119504335Y-66499500D01*
X119255665Y-66499500D01*
X119010383Y-66540429D01*
X118775197Y-66621169D01*
X118775188Y-66621172D01*
X118556493Y-66739524D01*
X118360257Y-66892261D01*
X118191833Y-67075217D01*
X118055827Y-67283391D01*
X118037440Y-67325311D01*
X117992483Y-67378796D01*
X117925747Y-67399486D01*
X117923884Y-67399500D01*
X114336116Y-67399500D01*
X114269077Y-67379815D01*
X114223322Y-67327011D01*
X114222560Y-67325311D01*
X114204172Y-67283391D01*
X114068166Y-67075217D01*
X114046557Y-67051744D01*
X113899744Y-66892262D01*
X113703509Y-66739526D01*
X113703507Y-66739525D01*
X113703506Y-66739524D01*
X113484811Y-66621172D01*
X113484802Y-66621169D01*
X113249616Y-66540429D01*
X113004335Y-66499500D01*
X112755665Y-66499500D01*
X112510383Y-66540429D01*
X112275197Y-66621169D01*
X112275188Y-66621172D01*
X112056493Y-66739524D01*
X111860257Y-66892261D01*
X111691833Y-67075217D01*
X111555827Y-67283391D01*
X111537440Y-67325311D01*
X111492483Y-67378796D01*
X111425747Y-67399486D01*
X111423884Y-67399500D01*
X85785909Y-67399500D01*
X85777810Y-67398969D01*
X85742481Y-67394318D01*
X85703120Y-67399500D01*
X85585720Y-67414955D01*
X85585718Y-67414956D01*
X85439638Y-67475464D01*
X85314200Y-67571716D01*
X85292500Y-67599994D01*
X85287149Y-67606096D01*
X83426096Y-69467149D01*
X83419993Y-69472501D01*
X83391718Y-69494198D01*
X83367549Y-69525694D01*
X83367550Y-69525695D01*
X83295464Y-69619639D01*
X83295461Y-69619644D01*
X83234957Y-69765715D01*
X83234955Y-69765720D01*
X83214318Y-69922479D01*
X83214318Y-69922480D01*
X83218969Y-69957807D01*
X83219500Y-69965909D01*
X83219500Y-72370908D01*
X83199815Y-72437947D01*
X83147914Y-72483286D01*
X83142173Y-72485963D01*
X83142169Y-72485965D01*
X82948597Y-72621505D01*
X82781505Y-72788597D01*
X82651575Y-72974158D01*
X82596998Y-73017783D01*
X82527500Y-73024977D01*
X82465145Y-72993454D01*
X82448425Y-72974158D01*
X82318494Y-72788597D01*
X82151402Y-72621506D01*
X82151395Y-72621501D01*
X81957831Y-72485965D01*
X81957826Y-72485962D01*
X81952091Y-72483288D01*
X81899653Y-72437113D01*
X81880500Y-72370908D01*
X81880500Y-63500005D01*
X111374858Y-63500005D01*
X111395385Y-63747729D01*
X111395387Y-63747738D01*
X111456412Y-63988717D01*
X111556266Y-64216364D01*
X111656564Y-64369882D01*
X112354070Y-63672375D01*
X112356884Y-63685915D01*
X112426442Y-63820156D01*
X112529638Y-63930652D01*
X112658819Y-64009209D01*
X112710002Y-64023549D01*
X112009942Y-64723609D01*
X112056768Y-64760055D01*
X112056770Y-64760056D01*
X112275385Y-64878364D01*
X112275396Y-64878369D01*
X112510506Y-64959083D01*
X112755707Y-65000000D01*
X113004293Y-65000000D01*
X113249493Y-64959083D01*
X113484603Y-64878369D01*
X113484614Y-64878364D01*
X113703228Y-64760057D01*
X113703231Y-64760055D01*
X113750056Y-64723609D01*
X113051568Y-64025121D01*
X113168458Y-63974349D01*
X113285739Y-63878934D01*
X113372928Y-63755415D01*
X113403354Y-63669802D01*
X114103434Y-64369882D01*
X114203731Y-64216369D01*
X114303587Y-63988717D01*
X114364612Y-63747738D01*
X114364614Y-63747729D01*
X114385141Y-63500005D01*
X117874858Y-63500005D01*
X117895385Y-63747729D01*
X117895387Y-63747738D01*
X117956412Y-63988717D01*
X118056266Y-64216364D01*
X118156564Y-64369882D01*
X118854070Y-63672376D01*
X118856884Y-63685915D01*
X118926442Y-63820156D01*
X119029638Y-63930652D01*
X119158819Y-64009209D01*
X119210002Y-64023549D01*
X118509942Y-64723609D01*
X118556768Y-64760055D01*
X118556770Y-64760056D01*
X118775385Y-64878364D01*
X118775396Y-64878369D01*
X119010506Y-64959083D01*
X119255707Y-65000000D01*
X119504293Y-65000000D01*
X119749493Y-64959083D01*
X119984603Y-64878369D01*
X119984614Y-64878364D01*
X120203228Y-64760057D01*
X120203231Y-64760055D01*
X120250056Y-64723609D01*
X119551568Y-64025121D01*
X119668458Y-63974349D01*
X119785739Y-63878934D01*
X119872928Y-63755415D01*
X119903354Y-63669802D01*
X120603434Y-64369882D01*
X120703731Y-64216369D01*
X120803587Y-63988717D01*
X120864612Y-63747738D01*
X120864614Y-63747729D01*
X120885141Y-63500005D01*
X120885141Y-63499994D01*
X120864614Y-63252270D01*
X120864612Y-63252261D01*
X120803587Y-63011282D01*
X120703731Y-62783630D01*
X120603434Y-62630116D01*
X119905928Y-63327621D01*
X119903116Y-63314085D01*
X119833558Y-63179844D01*
X119730362Y-63069348D01*
X119601181Y-62990791D01*
X119549997Y-62976450D01*
X120250057Y-62276390D01*
X120250056Y-62276389D01*
X120203229Y-62239943D01*
X119984614Y-62121635D01*
X119984603Y-62121630D01*
X119749493Y-62040916D01*
X119504293Y-62000000D01*
X119255707Y-62000000D01*
X119010506Y-62040916D01*
X118775396Y-62121630D01*
X118775390Y-62121632D01*
X118556761Y-62239949D01*
X118509942Y-62276388D01*
X118509942Y-62276390D01*
X119208431Y-62974878D01*
X119091542Y-63025651D01*
X118974261Y-63121066D01*
X118887072Y-63244585D01*
X118856645Y-63330196D01*
X118156563Y-62630116D01*
X118056267Y-62783632D01*
X117956412Y-63011282D01*
X117895387Y-63252261D01*
X117895385Y-63252270D01*
X117874858Y-63499994D01*
X117874858Y-63500005D01*
X114385141Y-63500005D01*
X114385141Y-63499994D01*
X114364614Y-63252270D01*
X114364612Y-63252261D01*
X114303587Y-63011282D01*
X114203731Y-62783630D01*
X114103434Y-62630116D01*
X113405928Y-63327621D01*
X113403116Y-63314085D01*
X113333558Y-63179844D01*
X113230362Y-63069348D01*
X113101181Y-62990791D01*
X113049997Y-62976450D01*
X113750057Y-62276390D01*
X113750056Y-62276389D01*
X113703229Y-62239943D01*
X113484614Y-62121635D01*
X113484603Y-62121630D01*
X113249493Y-62040916D01*
X113004293Y-62000000D01*
X112755707Y-62000000D01*
X112510506Y-62040916D01*
X112275396Y-62121630D01*
X112275390Y-62121632D01*
X112056761Y-62239949D01*
X112009942Y-62276388D01*
X112009942Y-62276390D01*
X112708431Y-62974878D01*
X112591542Y-63025651D01*
X112474261Y-63121066D01*
X112387072Y-63244585D01*
X112356645Y-63330197D01*
X111656564Y-62630116D01*
X111556267Y-62783632D01*
X111456412Y-63011282D01*
X111395387Y-63252261D01*
X111395385Y-63252270D01*
X111374858Y-63499994D01*
X111374858Y-63500005D01*
X81880500Y-63500005D01*
X81880500Y-60115009D01*
X81900185Y-60047970D01*
X81916819Y-60027328D01*
X82887329Y-59056819D01*
X82948652Y-59023334D01*
X82975010Y-59020500D01*
X111423884Y-59020500D01*
X111490923Y-59040185D01*
X111536678Y-59092989D01*
X111537440Y-59094689D01*
X111555827Y-59136608D01*
X111691833Y-59344782D01*
X111691836Y-59344785D01*
X111860256Y-59527738D01*
X112056491Y-59680474D01*
X112275190Y-59798828D01*
X112510386Y-59879571D01*
X112755665Y-59920500D01*
X113004335Y-59920500D01*
X113249614Y-59879571D01*
X113484810Y-59798828D01*
X113703509Y-59680474D01*
X113899744Y-59527738D01*
X114068164Y-59344785D01*
X114204173Y-59136607D01*
X114222559Y-59094689D01*
X114267517Y-59041204D01*
X114334253Y-59020514D01*
X114336116Y-59020500D01*
X117923884Y-59020500D01*
X117990923Y-59040185D01*
X118036678Y-59092989D01*
X118037440Y-59094689D01*
X118055827Y-59136608D01*
X118191833Y-59344782D01*
X118191836Y-59344785D01*
X118360256Y-59527738D01*
X118556491Y-59680474D01*
X118775190Y-59798828D01*
X119010386Y-59879571D01*
X119255665Y-59920500D01*
X119504335Y-59920500D01*
X119749614Y-59879571D01*
X119984810Y-59798828D01*
X120203509Y-59680474D01*
X120399744Y-59527738D01*
X120568164Y-59344785D01*
X120704173Y-59136607D01*
X120804063Y-58908881D01*
X120865108Y-58667821D01*
X120873555Y-58565881D01*
X120885643Y-58420005D01*
X120885643Y-58419994D01*
X120865109Y-58172187D01*
X120865107Y-58172175D01*
X120804063Y-57931118D01*
X120704173Y-57703393D01*
X120568166Y-57495217D01*
X120546557Y-57471744D01*
X120399744Y-57312262D01*
X120203509Y-57159526D01*
X120203507Y-57159525D01*
X120203506Y-57159524D01*
X119984811Y-57041172D01*
X119984802Y-57041169D01*
X119749616Y-56960429D01*
X119504335Y-56919500D01*
X119255665Y-56919500D01*
X119010383Y-56960429D01*
X118775197Y-57041169D01*
X118775188Y-57041172D01*
X118556493Y-57159524D01*
X118360257Y-57312261D01*
X118191833Y-57495217D01*
X118055827Y-57703391D01*
X118037440Y-57745311D01*
X117992483Y-57798796D01*
X117925747Y-57819486D01*
X117923884Y-57819500D01*
X114336116Y-57819500D01*
X114269077Y-57799815D01*
X114223322Y-57747011D01*
X114222560Y-57745311D01*
X114204172Y-57703391D01*
X114068166Y-57495217D01*
X114046557Y-57471744D01*
X113899744Y-57312262D01*
X113703509Y-57159526D01*
X113703507Y-57159525D01*
X113703506Y-57159524D01*
X113484811Y-57041172D01*
X113484802Y-57041169D01*
X113249616Y-56960429D01*
X113004335Y-56919500D01*
X112755665Y-56919500D01*
X112510383Y-56960429D01*
X112275197Y-57041169D01*
X112275188Y-57041172D01*
X112056493Y-57159524D01*
X111860257Y-57312261D01*
X111691833Y-57495217D01*
X111555827Y-57703391D01*
X111537440Y-57745311D01*
X111492483Y-57798796D01*
X111425747Y-57819486D01*
X111423884Y-57819500D01*
X82718340Y-57819500D01*
X82710241Y-57818969D01*
X82674912Y-57814318D01*
X82635551Y-57819500D01*
X82518151Y-57834955D01*
X82518149Y-57834956D01*
X82372069Y-57895464D01*
X82246631Y-57991716D01*
X82224934Y-58019990D01*
X82219583Y-58026092D01*
X80886096Y-59359580D01*
X80879994Y-59364931D01*
X80851718Y-59386629D01*
X80851717Y-59386630D01*
X80742370Y-59529133D01*
X80742611Y-59530513D01*
X80733963Y-59563977D01*
X80694957Y-59658146D01*
X80694955Y-59658151D01*
X80674318Y-59814910D01*
X80674318Y-59814911D01*
X80678969Y-59850238D01*
X80679500Y-59858340D01*
X80679500Y-72370908D01*
X80659815Y-72437947D01*
X80607914Y-72483286D01*
X80602173Y-72485963D01*
X80602169Y-72485965D01*
X80408597Y-72621505D01*
X80241505Y-72788597D01*
X80111575Y-72974158D01*
X80056998Y-73017783D01*
X79987500Y-73024977D01*
X79925145Y-72993454D01*
X79908425Y-72974158D01*
X79778494Y-72788597D01*
X79611402Y-72621506D01*
X79611395Y-72621501D01*
X79417831Y-72485965D01*
X79417826Y-72485962D01*
X79412091Y-72483288D01*
X79359653Y-72437113D01*
X79340500Y-72370908D01*
X79340500Y-59022739D01*
X79360185Y-58955700D01*
X79376819Y-58935058D01*
X81423986Y-56887892D01*
X81485309Y-56854407D01*
X81511667Y-56851573D01*
X99149603Y-56851573D01*
X99157701Y-56852103D01*
X99193031Y-56856755D01*
X99193032Y-56856755D01*
X99245284Y-56849875D01*
X99349793Y-56836117D01*
X99495872Y-56775609D01*
X99495872Y-56775608D01*
X99495872Y-56775607D01*
X99503336Y-56772516D01*
X99512113Y-56763145D01*
X99621313Y-56679355D01*
X99643014Y-56651072D01*
X99648342Y-56644995D01*
X101002817Y-55290520D01*
X101008894Y-55285192D01*
X101037177Y-55263491D01*
X101133431Y-55138050D01*
X101193939Y-54991971D01*
X101209395Y-54874570D01*
X101214577Y-54835209D01*
X101209925Y-54799878D01*
X101209395Y-54791780D01*
X101209395Y-53920005D01*
X111374858Y-53920005D01*
X111395385Y-54167729D01*
X111395387Y-54167738D01*
X111456412Y-54408717D01*
X111556266Y-54636364D01*
X111656564Y-54789882D01*
X112354070Y-54092375D01*
X112356884Y-54105915D01*
X112426442Y-54240156D01*
X112529638Y-54350652D01*
X112658819Y-54429209D01*
X112710002Y-54443549D01*
X112009942Y-55143609D01*
X112056768Y-55180055D01*
X112056770Y-55180056D01*
X112275385Y-55298364D01*
X112275396Y-55298369D01*
X112510506Y-55379083D01*
X112755707Y-55420000D01*
X113004293Y-55420000D01*
X113249493Y-55379083D01*
X113484603Y-55298369D01*
X113484614Y-55298364D01*
X113703228Y-55180057D01*
X113703231Y-55180055D01*
X113750056Y-55143609D01*
X113051568Y-54445121D01*
X113168458Y-54394349D01*
X113285739Y-54298934D01*
X113372928Y-54175415D01*
X113403354Y-54089802D01*
X114103434Y-54789882D01*
X114203731Y-54636369D01*
X114303587Y-54408717D01*
X114364612Y-54167738D01*
X114364614Y-54167729D01*
X114385141Y-53920005D01*
X117874858Y-53920005D01*
X117895385Y-54167729D01*
X117895387Y-54167738D01*
X117956412Y-54408717D01*
X118056266Y-54636364D01*
X118156564Y-54789882D01*
X118854070Y-54092376D01*
X118856884Y-54105915D01*
X118926442Y-54240156D01*
X119029638Y-54350652D01*
X119158819Y-54429209D01*
X119210002Y-54443549D01*
X118509942Y-55143609D01*
X118556768Y-55180055D01*
X118556770Y-55180056D01*
X118775385Y-55298364D01*
X118775396Y-55298369D01*
X119010506Y-55379083D01*
X119255707Y-55420000D01*
X119504293Y-55420000D01*
X119749493Y-55379083D01*
X119984603Y-55298369D01*
X119984614Y-55298364D01*
X120203228Y-55180057D01*
X120203231Y-55180055D01*
X120250056Y-55143609D01*
X119551568Y-54445121D01*
X119668458Y-54394349D01*
X119785739Y-54298934D01*
X119872928Y-54175415D01*
X119903354Y-54089802D01*
X120603434Y-54789882D01*
X120703731Y-54636369D01*
X120803587Y-54408717D01*
X120864612Y-54167738D01*
X120864614Y-54167729D01*
X120885141Y-53920005D01*
X120885141Y-53919994D01*
X120864614Y-53672270D01*
X120864612Y-53672261D01*
X120803587Y-53431282D01*
X120703731Y-53203630D01*
X120603434Y-53050116D01*
X119905928Y-53747621D01*
X119903116Y-53734085D01*
X119833558Y-53599844D01*
X119730362Y-53489348D01*
X119601181Y-53410791D01*
X119549997Y-53396450D01*
X120250057Y-52696390D01*
X120250056Y-52696389D01*
X120203229Y-52659943D01*
X119984614Y-52541635D01*
X119984603Y-52541630D01*
X119749493Y-52460916D01*
X119504293Y-52420000D01*
X119255707Y-52420000D01*
X119010506Y-52460916D01*
X118775396Y-52541630D01*
X118775390Y-52541632D01*
X118556761Y-52659949D01*
X118509942Y-52696388D01*
X118509942Y-52696390D01*
X119208431Y-53394878D01*
X119091542Y-53445651D01*
X118974261Y-53541066D01*
X118887072Y-53664585D01*
X118856645Y-53750197D01*
X118156564Y-53050116D01*
X118056267Y-53203632D01*
X117956412Y-53431282D01*
X117895387Y-53672261D01*
X117895385Y-53672270D01*
X117874858Y-53919994D01*
X117874858Y-53920005D01*
X114385141Y-53920005D01*
X114385141Y-53919994D01*
X114364614Y-53672270D01*
X114364612Y-53672261D01*
X114303587Y-53431282D01*
X114203731Y-53203630D01*
X114103434Y-53050116D01*
X113405928Y-53747621D01*
X113403116Y-53734085D01*
X113333558Y-53599844D01*
X113230362Y-53489348D01*
X113101181Y-53410791D01*
X113049995Y-53396449D01*
X113750056Y-52696389D01*
X113703229Y-52659943D01*
X113484614Y-52541635D01*
X113484603Y-52541630D01*
X113249493Y-52460916D01*
X113004293Y-52420000D01*
X112755707Y-52420000D01*
X112510506Y-52460916D01*
X112275396Y-52541630D01*
X112275390Y-52541632D01*
X112056761Y-52659949D01*
X112009942Y-52696388D01*
X112009941Y-52696389D01*
X112708431Y-53394878D01*
X112591542Y-53445651D01*
X112474261Y-53541066D01*
X112387072Y-53664585D01*
X112356645Y-53750197D01*
X111656564Y-53050116D01*
X111556267Y-53203632D01*
X111456412Y-53431282D01*
X111395387Y-53672261D01*
X111395385Y-53672270D01*
X111374858Y-53919994D01*
X111374858Y-53920005D01*
X101209395Y-53920005D01*
X101209395Y-51029302D01*
X101229080Y-50962263D01*
X101245709Y-50941626D01*
X103580517Y-48606818D01*
X103641840Y-48573334D01*
X103668198Y-48570500D01*
X111423884Y-48570500D01*
X111490923Y-48590185D01*
X111536678Y-48642989D01*
X111537440Y-48644689D01*
X111555827Y-48686608D01*
X111691833Y-48894782D01*
X111691836Y-48894785D01*
X111860256Y-49077738D01*
X112056491Y-49230474D01*
X112275190Y-49348828D01*
X112510386Y-49429571D01*
X112755665Y-49470500D01*
X113004335Y-49470500D01*
X113249614Y-49429571D01*
X113484810Y-49348828D01*
X113703509Y-49230474D01*
X113899744Y-49077738D01*
X114068164Y-48894785D01*
X114204173Y-48686607D01*
X114222559Y-48644689D01*
X114267517Y-48591204D01*
X114334253Y-48570514D01*
X114336116Y-48570500D01*
X117923884Y-48570500D01*
X117990923Y-48590185D01*
X118036678Y-48642989D01*
X118037440Y-48644689D01*
X118055827Y-48686608D01*
X118191833Y-48894782D01*
X118191836Y-48894785D01*
X118360256Y-49077738D01*
X118556491Y-49230474D01*
X118775190Y-49348828D01*
X119010386Y-49429571D01*
X119255665Y-49470500D01*
X119504335Y-49470500D01*
X119749614Y-49429571D01*
X119984810Y-49348828D01*
X120203509Y-49230474D01*
X120399744Y-49077738D01*
X120568164Y-48894785D01*
X120704173Y-48686607D01*
X120804063Y-48458881D01*
X120865108Y-48217821D01*
X120885643Y-47970000D01*
X120865108Y-47722179D01*
X120819409Y-47541718D01*
X120804063Y-47481118D01*
X120704173Y-47253393D01*
X120568166Y-47045217D01*
X120546557Y-47021744D01*
X120399744Y-46862262D01*
X120203509Y-46709526D01*
X120203507Y-46709525D01*
X120203506Y-46709524D01*
X119984811Y-46591172D01*
X119984802Y-46591169D01*
X119749616Y-46510429D01*
X119504335Y-46469500D01*
X119255665Y-46469500D01*
X119010383Y-46510429D01*
X118775197Y-46591169D01*
X118775188Y-46591172D01*
X118556493Y-46709524D01*
X118360257Y-46862261D01*
X118191833Y-47045217D01*
X118055827Y-47253391D01*
X118037440Y-47295311D01*
X117992483Y-47348796D01*
X117925747Y-47369486D01*
X117923884Y-47369500D01*
X114336116Y-47369500D01*
X114269077Y-47349815D01*
X114223322Y-47297011D01*
X114222560Y-47295311D01*
X114204172Y-47253391D01*
X114068166Y-47045217D01*
X114046557Y-47021744D01*
X113899744Y-46862262D01*
X113703509Y-46709526D01*
X113703507Y-46709525D01*
X113703506Y-46709524D01*
X113484811Y-46591172D01*
X113484802Y-46591169D01*
X113249616Y-46510429D01*
X113004335Y-46469500D01*
X112755665Y-46469500D01*
X112510383Y-46510429D01*
X112275197Y-46591169D01*
X112275188Y-46591172D01*
X112056493Y-46709524D01*
X111860257Y-46862261D01*
X111691833Y-47045217D01*
X111555827Y-47253391D01*
X111537440Y-47295311D01*
X111492483Y-47348796D01*
X111425747Y-47369486D01*
X111423884Y-47369500D01*
X103411535Y-47369500D01*
X103403435Y-47368969D01*
X103368101Y-47364317D01*
X103368100Y-47364317D01*
X103197532Y-47386772D01*
X103184626Y-47396020D01*
X103065257Y-47445465D01*
X102939820Y-47541716D01*
X102918120Y-47569994D01*
X102912769Y-47576096D01*
X100214991Y-50273874D01*
X100208888Y-50279226D01*
X100180613Y-50300923D01*
X100156444Y-50332419D01*
X100156445Y-50332420D01*
X100084359Y-50426364D01*
X100084356Y-50426369D01*
X100023852Y-50572440D01*
X100023850Y-50572445D01*
X100003213Y-50729204D01*
X100003213Y-50729206D01*
X100007864Y-50764532D01*
X100008395Y-50772633D01*
X100008395Y-54535111D01*
X99988710Y-54602150D01*
X99972076Y-54622792D01*
X98980615Y-55614254D01*
X98919292Y-55647739D01*
X98892934Y-55650573D01*
X81254998Y-55650573D01*
X81246899Y-55650042D01*
X81211570Y-55645391D01*
X81172209Y-55650573D01*
X81054809Y-55666028D01*
X81054807Y-55666029D01*
X80908730Y-55726536D01*
X80783284Y-55822794D01*
X80761594Y-55851063D01*
X80756241Y-55857167D01*
X78346096Y-58267311D01*
X78339993Y-58272663D01*
X78311718Y-58294360D01*
X78287549Y-58325856D01*
X78287550Y-58325857D01*
X78215464Y-58419801D01*
X78215461Y-58419806D01*
X78154957Y-58565877D01*
X78154955Y-58565882D01*
X78134318Y-58722641D01*
X78134318Y-58722642D01*
X78138969Y-58757969D01*
X78139500Y-58766071D01*
X78139500Y-72370908D01*
X78119815Y-72437947D01*
X78067914Y-72483286D01*
X78062173Y-72485963D01*
X78062169Y-72485965D01*
X77868597Y-72621505D01*
X77701505Y-72788597D01*
X77571575Y-72974158D01*
X77516998Y-73017783D01*
X77447500Y-73024977D01*
X77385145Y-72993454D01*
X77368425Y-72974158D01*
X77238494Y-72788597D01*
X77071402Y-72621506D01*
X77071395Y-72621501D01*
X76877834Y-72485967D01*
X76877830Y-72485965D01*
X76872081Y-72483284D01*
X76663663Y-72386097D01*
X76663659Y-72386096D01*
X76663655Y-72386094D01*
X76435413Y-72324938D01*
X76435403Y-72324936D01*
X76200001Y-72304341D01*
X76199999Y-72304341D01*
X75964596Y-72324936D01*
X75964586Y-72324938D01*
X75736344Y-72386094D01*
X75736335Y-72386098D01*
X75522171Y-72485964D01*
X75522169Y-72485965D01*
X75328597Y-72621505D01*
X75161505Y-72788597D01*
X75031575Y-72974158D01*
X74976998Y-73017783D01*
X74907500Y-73024977D01*
X74845145Y-72993454D01*
X74828425Y-72974158D01*
X74698494Y-72788597D01*
X74531402Y-72621506D01*
X74531395Y-72621501D01*
X74337834Y-72485967D01*
X74337830Y-72485965D01*
X74332081Y-72483284D01*
X74123663Y-72386097D01*
X74123659Y-72386096D01*
X74123655Y-72386094D01*
X73895413Y-72324938D01*
X73895403Y-72324936D01*
X73660001Y-72304341D01*
X73659999Y-72304341D01*
X73424596Y-72324936D01*
X73424586Y-72324938D01*
X73196344Y-72386094D01*
X73196335Y-72386098D01*
X72982171Y-72485964D01*
X72982169Y-72485965D01*
X72788597Y-72621505D01*
X72621505Y-72788597D01*
X72491575Y-72974158D01*
X72436998Y-73017783D01*
X72367500Y-73024977D01*
X72305145Y-72993454D01*
X72288425Y-72974158D01*
X72158494Y-72788597D01*
X71991402Y-72621506D01*
X71991395Y-72621501D01*
X71797834Y-72485967D01*
X71797830Y-72485965D01*
X71792081Y-72483284D01*
X71583663Y-72386097D01*
X71583659Y-72386096D01*
X71583655Y-72386094D01*
X71355413Y-72324938D01*
X71355403Y-72324936D01*
X71120001Y-72304341D01*
X71119999Y-72304341D01*
X70884596Y-72324936D01*
X70884586Y-72324938D01*
X70656344Y-72386094D01*
X70656335Y-72386098D01*
X70442171Y-72485964D01*
X70442169Y-72485965D01*
X70248597Y-72621505D01*
X70081505Y-72788597D01*
X69951575Y-72974158D01*
X69896998Y-73017783D01*
X69827500Y-73024977D01*
X69765145Y-72993454D01*
X69748425Y-72974158D01*
X69618494Y-72788597D01*
X69451402Y-72621506D01*
X69451395Y-72621501D01*
X69257834Y-72485967D01*
X69257830Y-72485965D01*
X69252081Y-72483284D01*
X69043663Y-72386097D01*
X69043659Y-72386096D01*
X69043655Y-72386094D01*
X68815413Y-72324938D01*
X68815403Y-72324936D01*
X68580001Y-72304341D01*
X68579999Y-72304341D01*
X68344596Y-72324936D01*
X68344586Y-72324938D01*
X68116344Y-72386094D01*
X68116335Y-72386098D01*
X67902171Y-72485964D01*
X67902169Y-72485965D01*
X67708597Y-72621505D01*
X67541505Y-72788597D01*
X67411575Y-72974158D01*
X67356998Y-73017783D01*
X67287500Y-73024977D01*
X67225145Y-72993454D01*
X67208425Y-72974158D01*
X67078494Y-72788597D01*
X66911402Y-72621506D01*
X66911395Y-72621501D01*
X66717834Y-72485967D01*
X66717830Y-72485965D01*
X66712081Y-72483284D01*
X66503663Y-72386097D01*
X66503659Y-72386096D01*
X66503655Y-72386094D01*
X66275413Y-72324938D01*
X66275403Y-72324936D01*
X66040001Y-72304341D01*
X66039999Y-72304341D01*
X65804596Y-72324936D01*
X65804586Y-72324938D01*
X65576344Y-72386094D01*
X65576335Y-72386098D01*
X65362171Y-72485964D01*
X65362169Y-72485965D01*
X65168597Y-72621505D01*
X65001508Y-72788594D01*
X64871574Y-72974160D01*
X64816997Y-73017784D01*
X64747498Y-73024977D01*
X64685144Y-72993455D01*
X64668429Y-72974164D01*
X64538495Y-72788599D01*
X64538493Y-72788596D01*
X64371402Y-72621506D01*
X64371395Y-72621501D01*
X64177834Y-72485967D01*
X64177830Y-72485965D01*
X64172081Y-72483284D01*
X63963663Y-72386097D01*
X63963659Y-72386096D01*
X63963655Y-72386094D01*
X63735413Y-72324938D01*
X63735403Y-72324936D01*
X63500001Y-72304341D01*
X63499999Y-72304341D01*
X63264596Y-72324936D01*
X63264586Y-72324938D01*
X63036344Y-72386094D01*
X63036335Y-72386098D01*
X62822171Y-72485964D01*
X62822169Y-72485965D01*
X62628597Y-72621505D01*
X62461508Y-72788594D01*
X62331574Y-72974159D01*
X62276997Y-73017784D01*
X62207498Y-73024976D01*
X62145144Y-72993454D01*
X62128424Y-72974158D01*
X61998494Y-72788597D01*
X61831402Y-72621506D01*
X61831395Y-72621501D01*
X61637834Y-72485967D01*
X61637830Y-72485965D01*
X61632081Y-72483284D01*
X61423663Y-72386097D01*
X61423659Y-72386096D01*
X61423655Y-72386094D01*
X61195413Y-72324938D01*
X61195403Y-72324936D01*
X60960001Y-72304341D01*
X60959999Y-72304341D01*
X60724596Y-72324936D01*
X60724586Y-72324938D01*
X60496344Y-72386094D01*
X60496335Y-72386098D01*
X60282171Y-72485964D01*
X60282169Y-72485965D01*
X60088597Y-72621505D01*
X59921505Y-72788597D01*
X59785965Y-72982169D01*
X59785964Y-72982171D01*
X59686098Y-73196335D01*
X59686094Y-73196344D01*
X59624938Y-73424586D01*
X59624936Y-73424596D01*
X59604341Y-73659999D01*
X59604341Y-73660000D01*
X59624936Y-73895403D01*
X59624938Y-73895413D01*
X59686094Y-74123655D01*
X59686096Y-74123659D01*
X59686097Y-74123663D01*
X59720635Y-74197729D01*
X59785965Y-74337830D01*
X59785967Y-74337834D01*
X59888723Y-74484584D01*
X59921505Y-74531401D01*
X60088599Y-74698495D01*
X60185384Y-74766264D01*
X60282165Y-74834032D01*
X60282167Y-74834033D01*
X60282170Y-74834035D01*
X60496337Y-74933903D01*
X60724592Y-74995063D01*
X60901034Y-75010500D01*
X60959999Y-75015659D01*
X60960000Y-75015659D01*
X60960001Y-75015659D01*
X61018966Y-75010500D01*
X61195408Y-74995063D01*
X61423663Y-74933903D01*
X61637830Y-74834035D01*
X61831401Y-74698495D01*
X61998495Y-74531401D01*
X62128424Y-74345842D01*
X62183002Y-74302217D01*
X62252500Y-74295023D01*
X62314855Y-74326546D01*
X62331575Y-74345842D01*
X62461500Y-74531395D01*
X62461505Y-74531401D01*
X62628599Y-74698495D01*
X62725384Y-74766264D01*
X62822165Y-74834032D01*
X62822167Y-74834033D01*
X62822170Y-74834035D01*
X62827898Y-74836706D01*
X62880339Y-74882872D01*
X62899500Y-74949090D01*
X62899499Y-75984597D01*
X62879814Y-76051637D01*
X62863180Y-76072278D01*
X60566096Y-78369363D01*
X60559994Y-78374714D01*
X60531720Y-78396410D01*
X60529110Y-78399812D01*
X60489228Y-78451787D01*
X60489227Y-78451787D01*
X60435464Y-78521852D01*
X60374956Y-78667932D01*
X60374955Y-78667934D01*
X60357030Y-78804093D01*
X60354318Y-78824695D01*
X60357650Y-78850007D01*
X60358969Y-78860021D01*
X60359500Y-78868123D01*
X60359500Y-79805500D01*
X60339815Y-79872539D01*
X60287011Y-79918294D01*
X60235501Y-79929500D01*
X60062130Y-79929500D01*
X60062123Y-79929501D01*
X60002516Y-79935908D01*
X59867671Y-79986202D01*
X59867664Y-79986206D01*
X59752455Y-80072452D01*
X59752452Y-80072455D01*
X59666206Y-80187664D01*
X59666202Y-80187671D01*
X59615908Y-80322517D01*
X59609501Y-80382116D01*
X59609500Y-80382135D01*
X59609500Y-82177870D01*
X59609501Y-82177876D01*
X59615908Y-82237483D01*
X59666202Y-82372328D01*
X59666206Y-82372335D01*
X59752452Y-82487544D01*
X59752455Y-82487547D01*
X59867664Y-82573793D01*
X59867671Y-82573797D01*
X60002517Y-82624091D01*
X60002516Y-82624091D01*
X60009444Y-82624835D01*
X60062127Y-82630500D01*
X61857872Y-82630499D01*
X61917483Y-82624091D01*
X62052331Y-82573796D01*
X62167546Y-82487546D01*
X62253796Y-82372331D01*
X62302810Y-82240916D01*
X62344681Y-82184984D01*
X62410145Y-82160566D01*
X62478418Y-82175417D01*
X62506673Y-82196569D01*
X62628599Y-82318495D01*
X62725384Y-82386265D01*
X62822165Y-82454032D01*
X62822167Y-82454033D01*
X62822170Y-82454035D01*
X63036337Y-82553903D01*
X63264592Y-82615063D01*
X63441034Y-82630500D01*
X63499999Y-82635659D01*
X63500000Y-82635659D01*
X63500001Y-82635659D01*
X63558966Y-82630500D01*
X63735408Y-82615063D01*
X63963663Y-82553903D01*
X64177830Y-82454035D01*
X64371401Y-82318495D01*
X64538495Y-82151401D01*
X64668426Y-81965841D01*
X64723002Y-81922217D01*
X64792500Y-81915023D01*
X64854855Y-81946546D01*
X64871575Y-81965842D01*
X65001500Y-82151395D01*
X65001505Y-82151401D01*
X65168599Y-82318495D01*
X65265384Y-82386265D01*
X65362165Y-82454032D01*
X65362167Y-82454033D01*
X65362170Y-82454035D01*
X65576337Y-82553903D01*
X65804592Y-82615063D01*
X65981034Y-82630500D01*
X66039999Y-82635659D01*
X66040000Y-82635659D01*
X66040001Y-82635659D01*
X66098966Y-82630500D01*
X66275408Y-82615063D01*
X66503663Y-82553903D01*
X66717830Y-82454035D01*
X66911401Y-82318495D01*
X67078495Y-82151401D01*
X67208426Y-81965841D01*
X67263002Y-81922217D01*
X67332500Y-81915023D01*
X67394855Y-81946546D01*
X67411575Y-81965842D01*
X67541500Y-82151395D01*
X67541505Y-82151401D01*
X67708599Y-82318495D01*
X67805384Y-82386265D01*
X67902165Y-82454032D01*
X67902167Y-82454033D01*
X67902170Y-82454035D01*
X68116337Y-82553903D01*
X68344592Y-82615063D01*
X68521034Y-82630500D01*
X68579999Y-82635659D01*
X68580000Y-82635659D01*
X68580001Y-82635659D01*
X68638966Y-82630500D01*
X68815408Y-82615063D01*
X69043663Y-82553903D01*
X69257830Y-82454035D01*
X69451401Y-82318495D01*
X69618495Y-82151401D01*
X69748730Y-81965405D01*
X69803307Y-81921781D01*
X69872805Y-81914587D01*
X69935160Y-81946110D01*
X69951879Y-81965405D01*
X70081890Y-82151078D01*
X70248917Y-82318105D01*
X70442421Y-82453600D01*
X70656507Y-82553429D01*
X70656516Y-82553433D01*
X70870000Y-82610634D01*
X70870000Y-81715501D01*
X70977685Y-81764680D01*
X71084237Y-81780000D01*
X71155763Y-81780000D01*
X71262315Y-81764680D01*
X71370000Y-81715501D01*
X71370000Y-82610633D01*
X71583483Y-82553433D01*
X71583492Y-82553429D01*
X71797578Y-82453600D01*
X71991082Y-82318105D01*
X72158105Y-82151082D01*
X72288119Y-81965405D01*
X72342696Y-81921781D01*
X72412195Y-81914588D01*
X72474549Y-81946110D01*
X72491269Y-81965405D01*
X72621505Y-82151401D01*
X72788599Y-82318495D01*
X72885384Y-82386265D01*
X72982165Y-82454032D01*
X72982167Y-82454033D01*
X72982170Y-82454035D01*
X72987898Y-82456706D01*
X73040339Y-82502872D01*
X73059500Y-82569090D01*
X73059500Y-83519902D01*
X73039815Y-83586941D01*
X73023181Y-83607583D01*
X70907584Y-85723181D01*
X70846261Y-85756666D01*
X70819903Y-85759500D01*
X57748695Y-85759500D01*
X57681656Y-85739815D01*
X57661014Y-85723181D01*
X54738982Y-82801149D01*
X54705497Y-82739826D01*
X54702663Y-82713468D01*
X54702663Y-52640165D01*
X54722348Y-52573126D01*
X54738982Y-52552484D01*
X55854647Y-51436819D01*
X55915970Y-51403334D01*
X55942328Y-51400500D01*
X59670909Y-51400500D01*
X59737948Y-51420185D01*
X59783292Y-51472097D01*
X59785965Y-51477830D01*
X59921505Y-51671401D01*
X60088599Y-51838495D01*
X60185384Y-51906264D01*
X60282165Y-51974032D01*
X60282167Y-51974033D01*
X60282170Y-51974035D01*
X60496337Y-52073903D01*
X60724592Y-52135063D01*
X60901034Y-52150500D01*
X60959999Y-52155659D01*
X60960000Y-52155659D01*
X60960001Y-52155659D01*
X61018966Y-52150500D01*
X61195408Y-52135063D01*
X61423663Y-52073903D01*
X61637830Y-51974035D01*
X61831401Y-51838495D01*
X61998495Y-51671401D01*
X62128730Y-51485405D01*
X62183307Y-51441781D01*
X62252805Y-51434587D01*
X62315160Y-51466110D01*
X62331879Y-51485405D01*
X62461890Y-51671078D01*
X62628917Y-51838105D01*
X62822421Y-51973600D01*
X63036507Y-52073429D01*
X63036516Y-52073433D01*
X63249998Y-52130635D01*
X63249999Y-52130634D01*
X63249999Y-51235501D01*
X63357685Y-51284680D01*
X63464237Y-51300000D01*
X63535763Y-51300000D01*
X63642315Y-51284680D01*
X63749999Y-51235501D01*
X63750000Y-52130634D01*
X63963483Y-52073433D01*
X63963492Y-52073429D01*
X64177578Y-51973600D01*
X64371082Y-51838105D01*
X64538105Y-51671082D01*
X64668119Y-51485405D01*
X64722696Y-51441781D01*
X64792195Y-51434588D01*
X64854549Y-51466110D01*
X64871269Y-51485405D01*
X65001505Y-51671401D01*
X65168599Y-51838495D01*
X65265384Y-51906264D01*
X65362165Y-51974032D01*
X65362167Y-51974033D01*
X65362170Y-51974035D01*
X65576337Y-52073903D01*
X65804592Y-52135063D01*
X65981034Y-52150500D01*
X66039999Y-52155659D01*
X66040000Y-52155659D01*
X66040001Y-52155659D01*
X66098966Y-52150500D01*
X66275408Y-52135063D01*
X66503663Y-52073903D01*
X66717830Y-51974035D01*
X66911401Y-51838495D01*
X67078495Y-51671401D01*
X67208426Y-51485841D01*
X67263002Y-51442217D01*
X67332500Y-51435023D01*
X67394855Y-51466546D01*
X67411575Y-51485842D01*
X67541500Y-51671395D01*
X67541505Y-51671401D01*
X67708599Y-51838495D01*
X67805384Y-51906265D01*
X67902165Y-51974032D01*
X67902167Y-51974033D01*
X67902170Y-51974035D01*
X68116337Y-52073903D01*
X68344592Y-52135063D01*
X68521034Y-52150500D01*
X68579999Y-52155659D01*
X68580000Y-52155659D01*
X68580001Y-52155659D01*
X68638966Y-52150500D01*
X68815408Y-52135063D01*
X69043663Y-52073903D01*
X69257830Y-51974035D01*
X69451401Y-51838495D01*
X69618495Y-51671401D01*
X69748426Y-51485841D01*
X69803002Y-51442217D01*
X69872500Y-51435023D01*
X69934855Y-51466546D01*
X69951575Y-51485842D01*
X70081500Y-51671395D01*
X70081505Y-51671401D01*
X70248599Y-51838495D01*
X70345384Y-51906265D01*
X70442165Y-51974032D01*
X70442167Y-51974033D01*
X70442170Y-51974035D01*
X70656337Y-52073903D01*
X70884592Y-52135063D01*
X71061034Y-52150500D01*
X71119999Y-52155659D01*
X71120000Y-52155659D01*
X71120001Y-52155659D01*
X71178966Y-52150500D01*
X71355408Y-52135063D01*
X71583663Y-52073903D01*
X71797830Y-51974035D01*
X71991401Y-51838495D01*
X72158495Y-51671401D01*
X72288426Y-51485841D01*
X72343002Y-51442217D01*
X72412500Y-51435023D01*
X72474855Y-51466546D01*
X72491575Y-51485842D01*
X72621500Y-51671395D01*
X72621505Y-51671401D01*
X72788599Y-51838495D01*
X72885384Y-51906265D01*
X72982165Y-51974032D01*
X72982167Y-51974033D01*
X72982170Y-51974035D01*
X73196337Y-52073903D01*
X73424592Y-52135063D01*
X73601034Y-52150500D01*
X73659999Y-52155659D01*
X73660000Y-52155659D01*
X73660001Y-52155659D01*
X73718966Y-52150500D01*
X73895408Y-52135063D01*
X74123663Y-52073903D01*
X74337830Y-51974035D01*
X74531401Y-51838495D01*
X74698495Y-51671401D01*
X74828426Y-51485841D01*
X74883002Y-51442217D01*
X74952500Y-51435023D01*
X75014855Y-51466546D01*
X75031575Y-51485842D01*
X75161500Y-51671395D01*
X75161505Y-51671401D01*
X75328599Y-51838495D01*
X75425384Y-51906265D01*
X75522165Y-51974032D01*
X75522167Y-51974033D01*
X75522170Y-51974035D01*
X75736337Y-52073903D01*
X75964592Y-52135063D01*
X76141034Y-52150500D01*
X76199999Y-52155659D01*
X76200000Y-52155659D01*
X76200001Y-52155659D01*
X76258966Y-52150500D01*
X76435408Y-52135063D01*
X76663663Y-52073903D01*
X76877830Y-51974035D01*
X77071401Y-51838495D01*
X77238495Y-51671401D01*
X77368426Y-51485841D01*
X77423002Y-51442217D01*
X77492500Y-51435023D01*
X77554855Y-51466546D01*
X77571575Y-51485842D01*
X77701500Y-51671395D01*
X77701505Y-51671401D01*
X77868599Y-51838495D01*
X77965384Y-51906265D01*
X78062165Y-51974032D01*
X78062167Y-51974033D01*
X78062170Y-51974035D01*
X78276337Y-52073903D01*
X78504592Y-52135063D01*
X78681034Y-52150500D01*
X78739999Y-52155659D01*
X78740000Y-52155659D01*
X78740001Y-52155659D01*
X78798966Y-52150500D01*
X78975408Y-52135063D01*
X79203663Y-52073903D01*
X79417830Y-51974035D01*
X79611401Y-51838495D01*
X79778495Y-51671401D01*
X79908426Y-51485841D01*
X79963002Y-51442217D01*
X80032500Y-51435023D01*
X80094855Y-51466546D01*
X80111575Y-51485842D01*
X80241500Y-51671395D01*
X80241505Y-51671401D01*
X80408599Y-51838495D01*
X80505384Y-51906265D01*
X80602165Y-51974032D01*
X80602167Y-51974033D01*
X80602170Y-51974035D01*
X80816337Y-52073903D01*
X81044592Y-52135063D01*
X81221034Y-52150500D01*
X81279999Y-52155659D01*
X81280000Y-52155659D01*
X81280001Y-52155659D01*
X81338966Y-52150500D01*
X81515408Y-52135063D01*
X81743663Y-52073903D01*
X81957830Y-51974035D01*
X82151401Y-51838495D01*
X82318495Y-51671401D01*
X82448426Y-51485840D01*
X82503001Y-51442217D01*
X82572499Y-51435023D01*
X82634854Y-51466546D01*
X82651574Y-51485841D01*
X82781505Y-51671401D01*
X82948599Y-51838495D01*
X83045384Y-51906264D01*
X83142165Y-51974032D01*
X83142167Y-51974033D01*
X83142170Y-51974035D01*
X83356337Y-52073903D01*
X83584592Y-52135063D01*
X83761034Y-52150500D01*
X83819999Y-52155659D01*
X83820000Y-52155659D01*
X83820001Y-52155659D01*
X83878966Y-52150500D01*
X84055408Y-52135063D01*
X84283663Y-52073903D01*
X84497830Y-51974035D01*
X84691401Y-51838495D01*
X84858495Y-51671401D01*
X84988426Y-51485841D01*
X85043002Y-51442217D01*
X85112500Y-51435023D01*
X85174855Y-51466546D01*
X85191575Y-51485842D01*
X85321500Y-51671395D01*
X85321505Y-51671401D01*
X85488599Y-51838495D01*
X85585384Y-51906264D01*
X85682165Y-51974032D01*
X85682167Y-51974033D01*
X85682170Y-51974035D01*
X85896337Y-52073903D01*
X86124592Y-52135063D01*
X86301034Y-52150500D01*
X86359999Y-52155659D01*
X86360000Y-52155659D01*
X86360001Y-52155659D01*
X86418966Y-52150500D01*
X86595408Y-52135063D01*
X86823663Y-52073903D01*
X87037830Y-51974035D01*
X87231401Y-51838495D01*
X87398495Y-51671401D01*
X87528426Y-51485840D01*
X87583001Y-51442217D01*
X87652499Y-51435023D01*
X87714854Y-51466546D01*
X87731574Y-51485841D01*
X87861505Y-51671401D01*
X88028599Y-51838495D01*
X88125384Y-51906264D01*
X88222165Y-51974032D01*
X88222167Y-51974033D01*
X88222170Y-51974035D01*
X88436337Y-52073903D01*
X88664592Y-52135063D01*
X88841034Y-52150500D01*
X88899999Y-52155659D01*
X88900000Y-52155659D01*
X88900001Y-52155659D01*
X88958966Y-52150500D01*
X89135408Y-52135063D01*
X89363663Y-52073903D01*
X89577830Y-51974035D01*
X89771401Y-51838495D01*
X89938495Y-51671401D01*
X90068426Y-51485841D01*
X90123002Y-51442217D01*
X90192500Y-51435023D01*
X90254855Y-51466546D01*
X90271575Y-51485842D01*
X90401500Y-51671395D01*
X90401505Y-51671401D01*
X90568599Y-51838495D01*
X90665384Y-51906264D01*
X90762165Y-51974032D01*
X90762167Y-51974033D01*
X90762170Y-51974035D01*
X90976337Y-52073903D01*
X91204592Y-52135063D01*
X91381034Y-52150500D01*
X91439999Y-52155659D01*
X91440000Y-52155659D01*
X91440001Y-52155659D01*
X91498966Y-52150500D01*
X91675408Y-52135063D01*
X91903663Y-52073903D01*
X92117830Y-51974035D01*
X92311401Y-51838495D01*
X92478495Y-51671401D01*
X92608426Y-51485840D01*
X92663001Y-51442217D01*
X92732499Y-51435023D01*
X92794854Y-51466546D01*
X92811574Y-51485841D01*
X92941505Y-51671401D01*
X93108599Y-51838495D01*
X93205384Y-51906264D01*
X93302165Y-51974032D01*
X93302167Y-51974033D01*
X93302170Y-51974035D01*
X93516337Y-52073903D01*
X93744592Y-52135063D01*
X93921034Y-52150500D01*
X93979999Y-52155659D01*
X93980000Y-52155659D01*
X93980001Y-52155659D01*
X94038966Y-52150500D01*
X94215408Y-52135063D01*
X94443663Y-52073903D01*
X94657830Y-51974035D01*
X94851401Y-51838495D01*
X94973329Y-51716566D01*
X95034648Y-51683084D01*
X95104340Y-51688068D01*
X95160274Y-51729939D01*
X95177189Y-51760917D01*
X95226202Y-51892328D01*
X95226206Y-51892335D01*
X95312452Y-52007544D01*
X95312455Y-52007547D01*
X95427664Y-52093793D01*
X95427671Y-52093797D01*
X95562517Y-52144091D01*
X95562516Y-52144091D01*
X95569444Y-52144835D01*
X95622127Y-52150500D01*
X97417872Y-52150499D01*
X97477483Y-52144091D01*
X97612331Y-52093796D01*
X97727546Y-52007546D01*
X97813796Y-51892331D01*
X97864091Y-51757483D01*
X97870500Y-51697873D01*
X97870499Y-49902128D01*
X97864091Y-49842517D01*
X97862810Y-49839083D01*
X97813797Y-49707671D01*
X97813793Y-49707664D01*
X97727547Y-49592455D01*
X97727544Y-49592452D01*
X97612335Y-49506206D01*
X97612328Y-49506202D01*
X97477482Y-49455908D01*
X97477483Y-49455908D01*
X97417883Y-49449501D01*
X97417881Y-49449500D01*
X97417873Y-49449500D01*
X97417865Y-49449500D01*
X97244500Y-49449500D01*
X97177461Y-49429815D01*
X97131706Y-49377011D01*
X97120500Y-49325500D01*
X97120500Y-44469090D01*
X97140185Y-44402051D01*
X97192101Y-44356706D01*
X97197830Y-44354035D01*
X97391401Y-44218495D01*
X97558495Y-44051401D01*
X97694035Y-43857830D01*
X97793903Y-43643663D01*
X97840434Y-43470005D01*
X111374858Y-43470005D01*
X111395385Y-43717729D01*
X111395387Y-43717738D01*
X111456412Y-43958717D01*
X111556266Y-44186364D01*
X111656564Y-44339882D01*
X112354070Y-43642375D01*
X112356884Y-43655915D01*
X112426442Y-43790156D01*
X112529638Y-43900652D01*
X112658819Y-43979209D01*
X112710002Y-43993549D01*
X112009942Y-44693609D01*
X112056768Y-44730055D01*
X112056770Y-44730056D01*
X112275385Y-44848364D01*
X112275396Y-44848369D01*
X112510506Y-44929083D01*
X112755707Y-44970000D01*
X113004293Y-44970000D01*
X113249493Y-44929083D01*
X113484603Y-44848369D01*
X113484614Y-44848364D01*
X113703228Y-44730057D01*
X113703231Y-44730055D01*
X113750056Y-44693609D01*
X113051568Y-43995121D01*
X113168458Y-43944349D01*
X113285739Y-43848934D01*
X113372928Y-43725415D01*
X113403354Y-43639802D01*
X114103434Y-44339882D01*
X114203731Y-44186369D01*
X114303587Y-43958717D01*
X114364612Y-43717738D01*
X114364614Y-43717729D01*
X114385141Y-43470005D01*
X117874858Y-43470005D01*
X117895385Y-43717729D01*
X117895387Y-43717738D01*
X117956412Y-43958717D01*
X118056266Y-44186364D01*
X118156564Y-44339882D01*
X118854070Y-43642376D01*
X118856884Y-43655915D01*
X118926442Y-43790156D01*
X119029638Y-43900652D01*
X119158819Y-43979209D01*
X119210002Y-43993549D01*
X118509942Y-44693609D01*
X118556768Y-44730055D01*
X118556770Y-44730056D01*
X118775385Y-44848364D01*
X118775396Y-44848369D01*
X119010506Y-44929083D01*
X119255707Y-44970000D01*
X119504293Y-44970000D01*
X119749493Y-44929083D01*
X119984603Y-44848369D01*
X119984614Y-44848364D01*
X120203228Y-44730057D01*
X120203231Y-44730055D01*
X120250056Y-44693609D01*
X119551568Y-43995121D01*
X119668458Y-43944349D01*
X119785739Y-43848934D01*
X119872928Y-43725415D01*
X119903354Y-43639802D01*
X120603434Y-44339882D01*
X120703731Y-44186369D01*
X120803587Y-43958717D01*
X120864612Y-43717738D01*
X120864614Y-43717729D01*
X120885141Y-43470005D01*
X120885141Y-43469994D01*
X120864614Y-43222270D01*
X120864612Y-43222261D01*
X120803587Y-42981282D01*
X120703731Y-42753630D01*
X120603434Y-42600116D01*
X119905928Y-43297621D01*
X119903116Y-43284085D01*
X119833558Y-43149844D01*
X119730362Y-43039348D01*
X119601181Y-42960791D01*
X119549995Y-42946449D01*
X120250056Y-42246389D01*
X120203229Y-42209943D01*
X119984614Y-42091635D01*
X119984603Y-42091630D01*
X119749493Y-42010916D01*
X119504293Y-41970000D01*
X119255707Y-41970000D01*
X119010506Y-42010916D01*
X118775396Y-42091630D01*
X118775390Y-42091632D01*
X118556761Y-42209949D01*
X118509942Y-42246388D01*
X118509941Y-42246389D01*
X119208431Y-42944878D01*
X119091542Y-42995651D01*
X118974261Y-43091066D01*
X118887072Y-43214585D01*
X118856645Y-43300197D01*
X118156564Y-42600116D01*
X118056267Y-42753632D01*
X117956412Y-42981282D01*
X117895387Y-43222261D01*
X117895385Y-43222270D01*
X117874858Y-43469994D01*
X117874858Y-43470005D01*
X114385141Y-43470005D01*
X114385141Y-43469994D01*
X114364614Y-43222270D01*
X114364612Y-43222261D01*
X114303587Y-42981282D01*
X114203731Y-42753630D01*
X114103434Y-42600116D01*
X113405928Y-43297621D01*
X113403116Y-43284085D01*
X113333558Y-43149844D01*
X113230362Y-43039348D01*
X113101181Y-42960791D01*
X113049997Y-42946450D01*
X113750057Y-42246390D01*
X113750056Y-42246389D01*
X113703229Y-42209943D01*
X113484614Y-42091635D01*
X113484603Y-42091630D01*
X113249493Y-42010916D01*
X113004293Y-41970000D01*
X112755707Y-41970000D01*
X112510506Y-42010916D01*
X112275396Y-42091630D01*
X112275390Y-42091632D01*
X112056761Y-42209949D01*
X112009942Y-42246388D01*
X112009942Y-42246390D01*
X112708431Y-42944878D01*
X112591542Y-42995651D01*
X112474261Y-43091066D01*
X112387072Y-43214585D01*
X112356645Y-43300197D01*
X111656564Y-42600116D01*
X111556267Y-42753632D01*
X111456412Y-42981282D01*
X111395387Y-43222261D01*
X111395385Y-43222270D01*
X111374858Y-43469994D01*
X111374858Y-43470005D01*
X97840434Y-43470005D01*
X97855063Y-43415408D01*
X97875659Y-43180000D01*
X97855063Y-42944592D01*
X97793903Y-42716337D01*
X97694035Y-42502171D01*
X97688425Y-42494158D01*
X97558494Y-42308597D01*
X97391402Y-42141506D01*
X97391395Y-42141501D01*
X97197834Y-42005967D01*
X97197830Y-42005965D01*
X97197828Y-42005964D01*
X96983663Y-41906097D01*
X96983659Y-41906096D01*
X96983655Y-41906094D01*
X96755413Y-41844938D01*
X96755403Y-41844936D01*
X96520001Y-41824341D01*
X96519999Y-41824341D01*
X96284596Y-41844936D01*
X96284586Y-41844938D01*
X96056344Y-41906094D01*
X96056335Y-41906098D01*
X95842171Y-42005964D01*
X95842169Y-42005965D01*
X95648597Y-42141505D01*
X95481505Y-42308597D01*
X95351575Y-42494158D01*
X95296998Y-42537783D01*
X95227500Y-42544977D01*
X95165145Y-42513454D01*
X95148425Y-42494158D01*
X95018494Y-42308597D01*
X94851402Y-42141506D01*
X94851395Y-42141501D01*
X94657834Y-42005967D01*
X94657830Y-42005965D01*
X94657828Y-42005964D01*
X94443663Y-41906097D01*
X94443659Y-41906096D01*
X94443655Y-41906094D01*
X94215413Y-41844938D01*
X94215403Y-41844936D01*
X93980001Y-41824341D01*
X93979999Y-41824341D01*
X93744596Y-41844936D01*
X93744586Y-41844938D01*
X93516344Y-41906094D01*
X93516335Y-41906098D01*
X93302171Y-42005964D01*
X93302169Y-42005965D01*
X93108597Y-42141505D01*
X92941505Y-42308597D01*
X92811575Y-42494158D01*
X92756998Y-42537783D01*
X92687500Y-42544977D01*
X92625145Y-42513454D01*
X92608425Y-42494158D01*
X92478494Y-42308597D01*
X92311402Y-42141506D01*
X92311395Y-42141501D01*
X92117834Y-42005967D01*
X92117830Y-42005965D01*
X92117828Y-42005964D01*
X91903663Y-41906097D01*
X91903659Y-41906096D01*
X91903655Y-41906094D01*
X91675413Y-41844938D01*
X91675403Y-41844936D01*
X91440001Y-41824341D01*
X91439999Y-41824341D01*
X91204596Y-41844936D01*
X91204586Y-41844938D01*
X90976344Y-41906094D01*
X90976335Y-41906098D01*
X90762171Y-42005964D01*
X90762169Y-42005965D01*
X90568597Y-42141505D01*
X90401508Y-42308594D01*
X90271574Y-42494159D01*
X90216997Y-42537784D01*
X90147498Y-42544976D01*
X90085144Y-42513454D01*
X90068424Y-42494158D01*
X89938494Y-42308597D01*
X89771402Y-42141506D01*
X89771395Y-42141501D01*
X89577834Y-42005967D01*
X89577830Y-42005965D01*
X89577828Y-42005964D01*
X89363663Y-41906097D01*
X89363659Y-41906096D01*
X89363655Y-41906094D01*
X89135413Y-41844938D01*
X89135403Y-41844936D01*
X88900001Y-41824341D01*
X88899999Y-41824341D01*
X88664596Y-41844936D01*
X88664586Y-41844938D01*
X88436344Y-41906094D01*
X88436335Y-41906098D01*
X88222171Y-42005964D01*
X88222169Y-42005965D01*
X88028597Y-42141505D01*
X87861505Y-42308597D01*
X87731575Y-42494158D01*
X87676998Y-42537783D01*
X87607500Y-42544977D01*
X87545145Y-42513454D01*
X87528425Y-42494158D01*
X87398494Y-42308597D01*
X87231402Y-42141506D01*
X87231395Y-42141501D01*
X87037834Y-42005967D01*
X87037830Y-42005965D01*
X87037828Y-42005964D01*
X86823663Y-41906097D01*
X86823659Y-41906096D01*
X86823655Y-41906094D01*
X86595413Y-41844938D01*
X86595403Y-41844936D01*
X86360001Y-41824341D01*
X86359999Y-41824341D01*
X86124596Y-41844936D01*
X86124586Y-41844938D01*
X85896344Y-41906094D01*
X85896335Y-41906098D01*
X85682171Y-42005964D01*
X85682169Y-42005965D01*
X85488597Y-42141505D01*
X85321505Y-42308597D01*
X85191575Y-42494158D01*
X85136998Y-42537783D01*
X85067500Y-42544977D01*
X85005145Y-42513454D01*
X84988425Y-42494158D01*
X84858494Y-42308597D01*
X84691402Y-42141506D01*
X84691395Y-42141501D01*
X84497834Y-42005967D01*
X84497830Y-42005965D01*
X84497828Y-42005964D01*
X84283663Y-41906097D01*
X84283659Y-41906096D01*
X84283655Y-41906094D01*
X84055413Y-41844938D01*
X84055403Y-41844936D01*
X83820001Y-41824341D01*
X83819999Y-41824341D01*
X83584596Y-41844936D01*
X83584586Y-41844938D01*
X83356344Y-41906094D01*
X83356335Y-41906098D01*
X83142171Y-42005964D01*
X83142169Y-42005965D01*
X82948597Y-42141505D01*
X82781505Y-42308597D01*
X82651575Y-42494158D01*
X82596998Y-42537783D01*
X82527500Y-42544977D01*
X82465145Y-42513454D01*
X82448425Y-42494158D01*
X82318494Y-42308597D01*
X82151402Y-42141506D01*
X82151395Y-42141501D01*
X81957834Y-42005967D01*
X81957830Y-42005965D01*
X81957828Y-42005964D01*
X81743663Y-41906097D01*
X81743659Y-41906096D01*
X81743655Y-41906094D01*
X81515413Y-41844938D01*
X81515403Y-41844936D01*
X81280001Y-41824341D01*
X81279999Y-41824341D01*
X81044596Y-41844936D01*
X81044586Y-41844938D01*
X80816344Y-41906094D01*
X80816335Y-41906098D01*
X80602171Y-42005964D01*
X80602169Y-42005965D01*
X80408597Y-42141505D01*
X80241505Y-42308597D01*
X80111575Y-42494158D01*
X80056998Y-42537783D01*
X79987500Y-42544977D01*
X79925145Y-42513454D01*
X79908425Y-42494158D01*
X79778494Y-42308597D01*
X79611402Y-42141506D01*
X79611395Y-42141501D01*
X79417834Y-42005967D01*
X79417830Y-42005965D01*
X79417828Y-42005964D01*
X79203663Y-41906097D01*
X79203659Y-41906096D01*
X79203655Y-41906094D01*
X78975413Y-41844938D01*
X78975403Y-41844936D01*
X78740001Y-41824341D01*
X78739999Y-41824341D01*
X78504596Y-41844936D01*
X78504586Y-41844938D01*
X78276344Y-41906094D01*
X78276335Y-41906098D01*
X78062171Y-42005964D01*
X78062169Y-42005965D01*
X77868597Y-42141505D01*
X77701505Y-42308597D01*
X77571575Y-42494158D01*
X77516998Y-42537783D01*
X77447500Y-42544977D01*
X77385145Y-42513454D01*
X77368425Y-42494158D01*
X77238494Y-42308597D01*
X77071402Y-42141506D01*
X77071395Y-42141501D01*
X76877834Y-42005967D01*
X76877830Y-42005965D01*
X76877828Y-42005964D01*
X76663663Y-41906097D01*
X76663659Y-41906096D01*
X76663655Y-41906094D01*
X76435413Y-41844938D01*
X76435403Y-41844936D01*
X76200001Y-41824341D01*
X76199999Y-41824341D01*
X75964596Y-41844936D01*
X75964586Y-41844938D01*
X75736344Y-41906094D01*
X75736335Y-41906098D01*
X75522171Y-42005964D01*
X75522169Y-42005965D01*
X75328597Y-42141505D01*
X75161505Y-42308597D01*
X75031575Y-42494158D01*
X74976998Y-42537783D01*
X74907500Y-42544977D01*
X74845145Y-42513454D01*
X74828425Y-42494158D01*
X74698494Y-42308597D01*
X74531402Y-42141506D01*
X74531395Y-42141501D01*
X74337834Y-42005967D01*
X74337830Y-42005965D01*
X74337829Y-42005964D01*
X74123663Y-41906097D01*
X74123659Y-41906096D01*
X74123655Y-41906094D01*
X73895413Y-41844938D01*
X73895403Y-41844936D01*
X73660001Y-41824341D01*
X73659999Y-41824341D01*
X73424596Y-41844936D01*
X73424586Y-41844938D01*
X73196344Y-41906094D01*
X73196335Y-41906098D01*
X72982171Y-42005964D01*
X72982169Y-42005965D01*
X72788597Y-42141505D01*
X72621505Y-42308597D01*
X72491575Y-42494158D01*
X72436998Y-42537783D01*
X72367500Y-42544977D01*
X72305145Y-42513454D01*
X72288425Y-42494158D01*
X72158494Y-42308597D01*
X71991402Y-42141506D01*
X71991395Y-42141501D01*
X71797834Y-42005967D01*
X71797830Y-42005965D01*
X71797830Y-42005964D01*
X71583663Y-41906097D01*
X71583659Y-41906096D01*
X71583655Y-41906094D01*
X71355413Y-41844938D01*
X71355403Y-41844936D01*
X71120001Y-41824341D01*
X71119999Y-41824341D01*
X70884596Y-41844936D01*
X70884586Y-41844938D01*
X70656344Y-41906094D01*
X70656335Y-41906098D01*
X70442171Y-42005964D01*
X70442169Y-42005965D01*
X70248597Y-42141505D01*
X70081505Y-42308597D01*
X69951575Y-42494158D01*
X69896998Y-42537783D01*
X69827500Y-42544977D01*
X69765145Y-42513454D01*
X69748425Y-42494158D01*
X69618494Y-42308597D01*
X69451402Y-42141506D01*
X69451395Y-42141501D01*
X69257834Y-42005967D01*
X69257830Y-42005965D01*
X69257829Y-42005964D01*
X69043663Y-41906097D01*
X69043659Y-41906096D01*
X69043655Y-41906094D01*
X68815413Y-41844938D01*
X68815403Y-41844936D01*
X68580001Y-41824341D01*
X68579999Y-41824341D01*
X68344596Y-41844936D01*
X68344586Y-41844938D01*
X68116344Y-41906094D01*
X68116335Y-41906098D01*
X67902171Y-42005964D01*
X67902169Y-42005965D01*
X67708600Y-42141503D01*
X67586673Y-42263430D01*
X67525350Y-42296914D01*
X67455658Y-42291930D01*
X67399725Y-42250058D01*
X67382810Y-42219081D01*
X67333797Y-42087671D01*
X67333793Y-42087664D01*
X67247547Y-41972455D01*
X67247544Y-41972452D01*
X67132335Y-41886206D01*
X67132328Y-41886202D01*
X66997482Y-41835908D01*
X66997483Y-41835908D01*
X66937883Y-41829501D01*
X66937881Y-41829500D01*
X66937873Y-41829500D01*
X66937864Y-41829500D01*
X65142129Y-41829500D01*
X65142123Y-41829501D01*
X65082516Y-41835908D01*
X64947671Y-41886202D01*
X64947664Y-41886206D01*
X64832455Y-41972452D01*
X64832452Y-41972455D01*
X64746206Y-42087664D01*
X64746202Y-42087671D01*
X64695908Y-42222517D01*
X64689501Y-42282116D01*
X64689500Y-42282135D01*
X64689500Y-44077870D01*
X64689501Y-44077876D01*
X64695908Y-44137483D01*
X64746202Y-44272328D01*
X64746206Y-44272335D01*
X64832452Y-44387544D01*
X64832455Y-44387547D01*
X64947664Y-44473793D01*
X64947671Y-44473797D01*
X64992618Y-44490561D01*
X65082517Y-44524091D01*
X65142127Y-44530500D01*
X65315500Y-44530499D01*
X65382539Y-44550183D01*
X65428294Y-44602987D01*
X65439500Y-44654499D01*
X65439500Y-49510908D01*
X65419815Y-49577947D01*
X65367914Y-49623286D01*
X65362173Y-49625963D01*
X65362169Y-49625965D01*
X65168597Y-49761505D01*
X65001508Y-49928594D01*
X64871269Y-50114595D01*
X64816692Y-50158219D01*
X64747193Y-50165412D01*
X64684839Y-50133890D01*
X64668119Y-50114594D01*
X64538113Y-49928926D01*
X64538108Y-49928920D01*
X64371082Y-49761894D01*
X64177578Y-49626399D01*
X63963492Y-49526570D01*
X63963486Y-49526567D01*
X63750000Y-49469364D01*
X63749999Y-49469364D01*
X63749999Y-50364498D01*
X63642315Y-50315320D01*
X63535763Y-50300000D01*
X63464237Y-50300000D01*
X63357685Y-50315320D01*
X63249999Y-50364498D01*
X63249999Y-49469364D01*
X63249998Y-49469364D01*
X63036505Y-49526570D01*
X62822422Y-49626399D01*
X62822420Y-49626400D01*
X62628926Y-49761886D01*
X62628920Y-49761891D01*
X62461891Y-49928920D01*
X62461890Y-49928922D01*
X62331880Y-50114595D01*
X62277303Y-50158219D01*
X62207804Y-50165412D01*
X62145450Y-50133890D01*
X62128730Y-50114594D01*
X61998494Y-49928597D01*
X61831402Y-49761506D01*
X61831395Y-49761501D01*
X61637834Y-49625967D01*
X61637830Y-49625965D01*
X61632085Y-49623286D01*
X61423663Y-49526097D01*
X61423659Y-49526096D01*
X61423655Y-49526094D01*
X61195413Y-49464938D01*
X61195403Y-49464936D01*
X60960001Y-49444341D01*
X60959999Y-49444341D01*
X60724596Y-49464936D01*
X60724586Y-49464938D01*
X60496344Y-49526094D01*
X60496335Y-49526098D01*
X60282171Y-49625964D01*
X60282169Y-49625965D01*
X60088597Y-49761505D01*
X59921506Y-49928596D01*
X59785965Y-50122170D01*
X59785962Y-50122175D01*
X59783289Y-50127909D01*
X59737115Y-50180346D01*
X59670909Y-50199500D01*
X55685658Y-50199500D01*
X55677560Y-50198969D01*
X55655438Y-50196056D01*
X55642232Y-50194318D01*
X55642228Y-50194318D01*
X55464142Y-50217762D01*
X55463335Y-50218910D01*
X55433562Y-50236456D01*
X55339387Y-50275465D01*
X55213950Y-50371716D01*
X55192250Y-50399994D01*
X55186899Y-50406096D01*
X53708259Y-51884736D01*
X53702156Y-51890088D01*
X53673881Y-51911785D01*
X53649712Y-51943281D01*
X53649713Y-51943282D01*
X53577627Y-52037226D01*
X53577624Y-52037231D01*
X53517120Y-52183302D01*
X53517118Y-52183307D01*
X53496481Y-52340066D01*
X53496481Y-52340067D01*
X53501132Y-52375394D01*
X53501663Y-52383496D01*
X53501663Y-82970136D01*
X53501132Y-82978238D01*
X53496481Y-83013564D01*
X53496481Y-83013565D01*
X53501663Y-83052925D01*
X53517118Y-83170325D01*
X53517119Y-83170327D01*
X53577627Y-83316406D01*
X53673881Y-83441847D01*
X53702158Y-83463545D01*
X53708248Y-83468885D01*
X55962544Y-85723181D01*
X56993267Y-86753904D01*
X56998618Y-86760005D01*
X57020316Y-86788282D01*
X57129515Y-86872072D01*
X57138292Y-86881443D01*
X57145757Y-86884535D01*
X57145757Y-86884536D01*
X57291836Y-86945044D01*
X57370217Y-86955363D01*
X57448597Y-86965682D01*
X57448598Y-86965682D01*
X57483927Y-86961030D01*
X57492026Y-86960500D01*
X69370902Y-86960500D01*
X69437941Y-86980185D01*
X69483696Y-87032989D01*
X69493640Y-87102147D01*
X69464615Y-87165703D01*
X69458583Y-87172181D01*
X68367584Y-88263181D01*
X68306261Y-88296666D01*
X68279903Y-88299500D01*
X63543428Y-88299500D01*
X63535329Y-88298969D01*
X63500000Y-88294318D01*
X63460639Y-88299500D01*
X63343239Y-88314955D01*
X63343237Y-88314956D01*
X63197160Y-88375463D01*
X63071714Y-88471721D01*
X63050024Y-88499990D01*
X63044671Y-88506094D01*
X58026096Y-93524668D01*
X58019994Y-93530019D01*
X57991716Y-93551719D01*
X57895464Y-93677157D01*
X57834956Y-93823237D01*
X57834956Y-93823238D01*
X57814318Y-93979998D01*
X57818968Y-94015328D01*
X57819499Y-94023428D01*
X57819499Y-102256928D01*
X57799814Y-102323967D01*
X57783180Y-102344609D01*
X56624610Y-103503181D01*
X56563287Y-103536666D01*
X56536929Y-103539500D01*
X54629091Y-103539500D01*
X54562052Y-103519815D01*
X54516711Y-103467909D01*
X54514037Y-103462175D01*
X54514034Y-103462170D01*
X54514033Y-103462169D01*
X54378495Y-103268599D01*
X54378494Y-103268597D01*
X54211402Y-103101506D01*
X54211401Y-103101505D01*
X54025405Y-102971269D01*
X53981781Y-102916692D01*
X53974588Y-102847193D01*
X54006110Y-102784839D01*
X54025405Y-102768119D01*
X54211082Y-102638105D01*
X54378105Y-102471082D01*
X54513600Y-102277578D01*
X54613429Y-102063492D01*
X54613432Y-102063486D01*
X54670636Y-101850000D01*
X53773686Y-101850000D01*
X53799493Y-101809844D01*
X53840000Y-101671889D01*
X53840000Y-101528111D01*
X53799493Y-101390156D01*
X53773686Y-101350000D01*
X54670636Y-101350000D01*
X54670635Y-101349999D01*
X54613432Y-101136513D01*
X54613429Y-101136507D01*
X54513600Y-100922422D01*
X54513599Y-100922420D01*
X54378113Y-100728926D01*
X54378108Y-100728920D01*
X54211082Y-100561894D01*
X54017578Y-100426399D01*
X53803492Y-100326570D01*
X53803486Y-100326567D01*
X53590000Y-100269364D01*
X53590000Y-101164498D01*
X53482315Y-101115320D01*
X53375763Y-101100000D01*
X53304237Y-101100000D01*
X53197685Y-101115320D01*
X53089999Y-101164498D01*
X53089999Y-100269364D01*
X53089998Y-100269364D01*
X52876505Y-100326570D01*
X52662422Y-100426399D01*
X52662420Y-100426400D01*
X52468926Y-100561886D01*
X52468920Y-100561891D01*
X52301891Y-100728920D01*
X52301886Y-100728926D01*
X52166400Y-100922420D01*
X52166399Y-100922422D01*
X52066570Y-101136507D01*
X52066567Y-101136513D01*
X52009364Y-101349999D01*
X52009364Y-101350000D01*
X52906314Y-101350000D01*
X52880507Y-101390156D01*
X52840000Y-101528111D01*
X52840000Y-101671889D01*
X52880507Y-101809844D01*
X52906314Y-101850000D01*
X52009364Y-101850000D01*
X52066567Y-102063486D01*
X52066570Y-102063492D01*
X52166399Y-102277578D01*
X52301894Y-102471082D01*
X52468917Y-102638105D01*
X52654595Y-102768119D01*
X52698219Y-102822696D01*
X52705412Y-102892195D01*
X52673890Y-102954549D01*
X52654595Y-102971269D01*
X52468594Y-103101508D01*
X52301505Y-103268597D01*
X52165965Y-103462169D01*
X52165964Y-103462171D01*
X52066098Y-103676335D01*
X52066094Y-103676344D01*
X52004938Y-103904586D01*
X52004936Y-103904596D01*
X51984341Y-104139999D01*
X51984341Y-104140000D01*
X48760500Y-104140000D01*
X48760500Y-38724500D01*
X48780185Y-38657461D01*
X48832989Y-38611706D01*
X48884500Y-38600500D01*
X126375500Y-38600500D01*
X126442539Y-38620185D01*
G37*
%TD.AperFunction*%
%TD*%
M02*
